<mxfile host="app.diagrams.net" modified="2021-08-18T19:39:02.350Z" agent="5.0 (Windows NT 10.0; Win64; x64) AppleWebKit/537.36 (KHTML, like Gecko) Chrome/92.0.4515.131 Safari/537.36" etag="86g-SqoQh0fN_sEFEajq" version="14.9.7" type="github">
  <diagram name="Page-1" id="5f0bae14-7c28-e335-631c-24af17079c00">
    <mxGraphModel dx="4655" dy="1985" grid="1" gridSize="10" guides="1" tooltips="1" connect="1" arrows="1" fold="1" page="1" pageScale="1" pageWidth="1100" pageHeight="850" background="none" math="0" shadow="0">
      <root>
        <mxCell id="0" />
        <mxCell id="1" parent="0" />
        <mxCell id="OKTao6-8tQ2HSba5QrjD-53" style="edgeStyle=orthogonalEdgeStyle;rounded=0;orthogonalLoop=1;jettySize=auto;html=1;exitX=0.5;exitY=1;exitDx=0;exitDy=0;entryX=0.5;entryY=0;entryDx=0;entryDy=0;dashed=1;fontColor=#EA6B66;" parent="1" source="CA9-zons2UcCvZ7FdS-7-17" target="boM8Fp75N3sVBavPqf3y-105" edge="1">
          <mxGeometry relative="1" as="geometry" />
        </mxCell>
        <mxCell id="CA9-zons2UcCvZ7FdS-7-17" value="Реестр накладных (ЖД транспорт)&#xa;waybill.railway_register" style="shape=table;startSize=30;container=1;collapsible=1;childLayout=tableLayout;fixedRows=1;rowLines=0;fontStyle=1;align=center;resizeLast=1;fillColor=#e3c800;strokeColor=#B09500;fontColor=#000000;" parent="1" vertex="1">
          <mxGeometry x="180" width="380" height="850.0000000000002" as="geometry">
            <mxRectangle x="180" y="6" width="240" height="30" as="alternateBounds" />
          </mxGeometry>
        </mxCell>
        <mxCell id="CA9-zons2UcCvZ7FdS-7-18" value="" style="shape=partialRectangle;collapsible=0;dropTarget=0;pointerEvents=0;fillColor=none;top=0;left=0;bottom=1;right=0;points=[[0,0.5],[1,0.5]];portConstraint=eastwest;strokeColor=#FFD966;" parent="CA9-zons2UcCvZ7FdS-7-17" vertex="1">
          <mxGeometry y="30" width="380" height="30" as="geometry" />
        </mxCell>
        <mxCell id="CA9-zons2UcCvZ7FdS-7-19" value="id" style="shape=partialRectangle;connectable=0;fillColor=none;top=0;left=0;bottom=0;right=0;fontStyle=1;overflow=hidden;fontColor=#A680B8;" parent="CA9-zons2UcCvZ7FdS-7-18" vertex="1">
          <mxGeometry width="130" height="30" as="geometry" />
        </mxCell>
        <mxCell id="CA9-zons2UcCvZ7FdS-7-20" value="Идентификатор накладной" style="shape=partialRectangle;connectable=0;fillColor=none;top=0;left=0;bottom=0;right=0;align=left;spacingLeft=6;fontStyle=5;overflow=hidden;" parent="CA9-zons2UcCvZ7FdS-7-18" vertex="1">
          <mxGeometry x="130" width="250" height="30" as="geometry" />
        </mxCell>
        <mxCell id="CA9-zons2UcCvZ7FdS-7-21" value="" style="shape=partialRectangle;collapsible=0;dropTarget=0;pointerEvents=0;fillColor=none;top=0;left=0;bottom=0;right=0;points=[[0,0.5],[1,0.5]];portConstraint=eastwest;" parent="CA9-zons2UcCvZ7FdS-7-17" vertex="1">
          <mxGeometry y="60" width="380" height="30" as="geometry" />
        </mxCell>
        <mxCell id="CA9-zons2UcCvZ7FdS-7-22" value="base" style="shape=partialRectangle;connectable=0;fillColor=none;top=0;left=0;bottom=0;right=0;editable=1;overflow=hidden;fontColor=#A680B8;fontStyle=0" parent="CA9-zons2UcCvZ7FdS-7-21" vertex="1">
          <mxGeometry width="130" height="30" as="geometry" />
        </mxCell>
        <mxCell id="CA9-zons2UcCvZ7FdS-7-23" value="Центр отгрузки" style="shape=partialRectangle;connectable=0;fillColor=none;top=0;left=0;bottom=0;right=0;align=left;spacingLeft=6;overflow=hidden;" parent="CA9-zons2UcCvZ7FdS-7-21" vertex="1">
          <mxGeometry x="130" width="250" height="30" as="geometry" />
        </mxCell>
        <mxCell id="CA9-zons2UcCvZ7FdS-7-24" value="" style="shape=partialRectangle;collapsible=0;dropTarget=0;pointerEvents=0;fillColor=none;top=0;left=0;bottom=0;right=0;points=[[0,0.5],[1,0.5]];portConstraint=eastwest;" parent="CA9-zons2UcCvZ7FdS-7-17" vertex="1">
          <mxGeometry y="90" width="380" height="30" as="geometry" />
        </mxCell>
        <mxCell id="CA9-zons2UcCvZ7FdS-7-25" value="parsed_passport" style="shape=partialRectangle;connectable=0;fillColor=none;top=0;left=0;bottom=0;right=0;editable=1;overflow=hidden;fontColor=#A680B8;fontStyle=0" parent="CA9-zons2UcCvZ7FdS-7-24" vertex="1">
          <mxGeometry width="130" height="30" as="geometry" />
        </mxCell>
        <mxCell id="CA9-zons2UcCvZ7FdS-7-26" value="Выделенный номер паспорта по вагонам &#xa;(для связи с другими модулями)" style="shape=partialRectangle;connectable=0;fillColor=none;top=0;left=0;bottom=0;right=0;align=left;spacingLeft=6;overflow=hidden;" parent="CA9-zons2UcCvZ7FdS-7-24" vertex="1">
          <mxGeometry x="130" width="250" height="30" as="geometry" />
        </mxCell>
        <mxCell id="CA9-zons2UcCvZ7FdS-7-27" value="" style="shape=partialRectangle;collapsible=0;dropTarget=0;pointerEvents=0;fillColor=none;top=0;left=0;bottom=0;right=0;points=[[0,0.5],[1,0.5]];portConstraint=eastwest;" parent="CA9-zons2UcCvZ7FdS-7-17" vertex="1">
          <mxGeometry y="120" width="380" height="30" as="geometry" />
        </mxCell>
        <mxCell id="CA9-zons2UcCvZ7FdS-7-28" value="parsed_passport_date" style="shape=partialRectangle;connectable=0;fillColor=none;top=0;left=0;bottom=0;right=0;editable=1;overflow=hidden;fontColor=#7EA6E0;fontStyle=0" parent="CA9-zons2UcCvZ7FdS-7-27" vertex="1">
          <mxGeometry width="130" height="30" as="geometry" />
        </mxCell>
        <mxCell id="CA9-zons2UcCvZ7FdS-7-29" value="Выделенная дата паспорта качества по &#xa;вагонам (для связи с другими модулями)" style="shape=partialRectangle;connectable=0;fillColor=none;top=0;left=0;bottom=0;right=0;align=left;spacingLeft=6;overflow=hidden;fontStyle=0;" parent="CA9-zons2UcCvZ7FdS-7-27" vertex="1">
          <mxGeometry x="130" width="250" height="30" as="geometry" />
        </mxCell>
        <mxCell id="CA9-zons2UcCvZ7FdS-7-39" value="" style="shape=partialRectangle;collapsible=0;dropTarget=0;pointerEvents=0;fillColor=none;top=0;left=0;bottom=0;right=0;points=[[0,0.5],[1,0.5]];portConstraint=eastwest;" parent="CA9-zons2UcCvZ7FdS-7-17" vertex="1">
          <mxGeometry y="150" width="380" height="30" as="geometry" />
        </mxCell>
        <mxCell id="CA9-zons2UcCvZ7FdS-7-40" value="waybill " style="shape=partialRectangle;connectable=0;fillColor=none;top=0;left=0;bottom=0;right=0;editable=1;overflow=hidden;fontColor=#A680B8;fontStyle=0" parent="CA9-zons2UcCvZ7FdS-7-39" vertex="1">
          <mxGeometry width="130" height="30" as="geometry" />
        </mxCell>
        <mxCell id="CA9-zons2UcCvZ7FdS-7-41" value="Номер накладной" style="shape=partialRectangle;connectable=0;fillColor=none;top=0;left=0;bottom=0;right=0;align=left;spacingLeft=6;overflow=hidden;" parent="CA9-zons2UcCvZ7FdS-7-39" vertex="1">
          <mxGeometry x="130" width="250" height="30" as="geometry" />
        </mxCell>
        <mxCell id="CA9-zons2UcCvZ7FdS-7-42" value="" style="shape=partialRectangle;collapsible=0;dropTarget=0;pointerEvents=0;fillColor=none;top=0;left=0;bottom=0;right=0;points=[[0,0.5],[1,0.5]];portConstraint=eastwest;" parent="CA9-zons2UcCvZ7FdS-7-17" vertex="1">
          <mxGeometry y="180" width="380" height="30" as="geometry" />
        </mxCell>
        <mxCell id="CA9-zons2UcCvZ7FdS-7-43" value="date_doc_nakl " style="shape=partialRectangle;connectable=0;fillColor=none;top=0;left=0;bottom=0;right=0;editable=1;overflow=hidden;fontColor=#67AB9F;" parent="CA9-zons2UcCvZ7FdS-7-42" vertex="1">
          <mxGeometry width="130" height="30" as="geometry" />
        </mxCell>
        <mxCell id="CA9-zons2UcCvZ7FdS-7-44" value="Дата/Время накладной" style="shape=partialRectangle;connectable=0;fillColor=none;top=0;left=0;bottom=0;right=0;align=left;spacingLeft=6;overflow=hidden;" parent="CA9-zons2UcCvZ7FdS-7-42" vertex="1">
          <mxGeometry x="130" width="250" height="30" as="geometry" />
        </mxCell>
        <mxCell id="CA9-zons2UcCvZ7FdS-7-45" value="" style="shape=partialRectangle;collapsible=0;dropTarget=0;pointerEvents=0;fillColor=none;top=0;left=0;bottom=0;right=0;points=[[0,0.5],[1,0.5]];portConstraint=eastwest;" parent="CA9-zons2UcCvZ7FdS-7-17" vertex="1">
          <mxGeometry y="210" width="380" height="30" as="geometry" />
        </mxCell>
        <mxCell id="CA9-zons2UcCvZ7FdS-7-46" value="station_depart" style="shape=partialRectangle;connectable=0;fillColor=none;top=0;left=0;bottom=0;right=0;editable=1;overflow=hidden;fontColor=#A680B8;fontStyle=0" parent="CA9-zons2UcCvZ7FdS-7-45" vertex="1">
          <mxGeometry width="130" height="30" as="geometry" />
        </mxCell>
        <mxCell id="CA9-zons2UcCvZ7FdS-7-47" value="Cтанция отправки" style="shape=partialRectangle;connectable=0;fillColor=none;top=0;left=0;bottom=0;right=0;align=left;spacingLeft=6;overflow=hidden;" parent="CA9-zons2UcCvZ7FdS-7-45" vertex="1">
          <mxGeometry x="130" width="250" height="30" as="geometry" />
        </mxCell>
        <mxCell id="CA9-zons2UcCvZ7FdS-7-49" value="" style="shape=partialRectangle;collapsible=0;dropTarget=0;pointerEvents=0;fillColor=none;top=0;left=0;bottom=0;right=0;points=[[0,0.5],[1,0.5]];portConstraint=eastwest;" parent="CA9-zons2UcCvZ7FdS-7-17" vertex="1">
          <mxGeometry y="240" width="380" height="30" as="geometry" />
        </mxCell>
        <mxCell id="CA9-zons2UcCvZ7FdS-7-50" value="consignor" style="shape=partialRectangle;connectable=0;fillColor=none;top=0;left=0;bottom=0;right=0;editable=1;overflow=hidden;fontColor=#A680B8;fontStyle=0" parent="CA9-zons2UcCvZ7FdS-7-49" vertex="1">
          <mxGeometry width="130" height="30" as="geometry" />
        </mxCell>
        <mxCell id="CA9-zons2UcCvZ7FdS-7-51" value="Организация отправитель" style="shape=partialRectangle;connectable=0;fillColor=none;top=0;left=0;bottom=0;right=0;align=left;spacingLeft=6;overflow=hidden;" parent="CA9-zons2UcCvZ7FdS-7-49" vertex="1">
          <mxGeometry x="130" width="250" height="30" as="geometry" />
        </mxCell>
        <mxCell id="CA9-zons2UcCvZ7FdS-7-52" value="" style="shape=partialRectangle;collapsible=0;dropTarget=0;pointerEvents=0;fillColor=none;top=0;left=0;bottom=0;right=0;points=[[0,0.5],[1,0.5]];portConstraint=eastwest;" parent="CA9-zons2UcCvZ7FdS-7-17" vertex="1">
          <mxGeometry y="270" width="380" height="30" as="geometry" />
        </mxCell>
        <mxCell id="CA9-zons2UcCvZ7FdS-7-53" value="date_delivery" style="shape=partialRectangle;connectable=0;fillColor=none;top=0;left=0;bottom=0;right=0;editable=1;overflow=hidden;fontColor=#7EA6E0;fontStyle=0" parent="CA9-zons2UcCvZ7FdS-7-52" vertex="1">
          <mxGeometry width="130" height="30" as="geometry" />
        </mxCell>
        <mxCell id="CA9-zons2UcCvZ7FdS-7-54" value="Дата поставки" style="shape=partialRectangle;connectable=0;fillColor=none;top=0;left=0;bottom=0;right=0;align=left;spacingLeft=6;overflow=hidden;" parent="CA9-zons2UcCvZ7FdS-7-52" vertex="1">
          <mxGeometry x="130" width="250" height="30" as="geometry" />
        </mxCell>
        <mxCell id="CA9-zons2UcCvZ7FdS-7-55" value="" style="shape=partialRectangle;collapsible=0;dropTarget=0;pointerEvents=0;fillColor=none;top=0;left=0;bottom=0;right=0;points=[[0,0.5],[1,0.5]];portConstraint=eastwest;" parent="CA9-zons2UcCvZ7FdS-7-17" vertex="1">
          <mxGeometry y="300" width="380" height="30" as="geometry" />
        </mxCell>
        <mxCell id="CA9-zons2UcCvZ7FdS-7-56" value="station_destination" style="shape=partialRectangle;connectable=0;fillColor=none;top=0;left=0;bottom=0;right=0;editable=1;overflow=hidden;fontColor=#A680B8;fontStyle=0" parent="CA9-zons2UcCvZ7FdS-7-55" vertex="1">
          <mxGeometry width="130" height="30" as="geometry" />
        </mxCell>
        <mxCell id="CA9-zons2UcCvZ7FdS-7-57" value="Станция прибытия" style="shape=partialRectangle;connectable=0;fillColor=none;top=0;left=0;bottom=0;right=0;align=left;spacingLeft=6;overflow=hidden;" parent="CA9-zons2UcCvZ7FdS-7-55" vertex="1">
          <mxGeometry x="130" width="250" height="30" as="geometry" />
        </mxCell>
        <mxCell id="CA9-zons2UcCvZ7FdS-7-58" value="" style="shape=partialRectangle;collapsible=0;dropTarget=0;pointerEvents=0;fillColor=none;top=0;left=0;bottom=0;right=0;points=[[0,0.5],[1,0.5]];portConstraint=eastwest;" parent="CA9-zons2UcCvZ7FdS-7-17" vertex="1">
          <mxGeometry y="330" width="380" height="30" as="geometry" />
        </mxCell>
        <mxCell id="CA9-zons2UcCvZ7FdS-7-59" value="consignee" style="shape=partialRectangle;connectable=0;fillColor=none;top=0;left=0;bottom=0;right=0;editable=1;overflow=hidden;fontColor=#A680B8;fontStyle=0" parent="CA9-zons2UcCvZ7FdS-7-58" vertex="1">
          <mxGeometry width="130" height="30" as="geometry" />
        </mxCell>
        <mxCell id="CA9-zons2UcCvZ7FdS-7-60" value="Организация получатель" style="shape=partialRectangle;connectable=0;fillColor=none;top=0;left=0;bottom=0;right=0;align=left;spacingLeft=6;overflow=hidden;" parent="CA9-zons2UcCvZ7FdS-7-58" vertex="1">
          <mxGeometry x="130" width="250" height="30" as="geometry" />
        </mxCell>
        <mxCell id="CA9-zons2UcCvZ7FdS-7-61" value="" style="shape=partialRectangle;collapsible=0;dropTarget=0;pointerEvents=0;fillColor=none;top=0;left=0;bottom=0;right=0;points=[[0,0.5],[1,0.5]];portConstraint=eastwest;" parent="CA9-zons2UcCvZ7FdS-7-17" vertex="1">
          <mxGeometry y="360" width="380" height="30" as="geometry" />
        </mxCell>
        <mxCell id="CA9-zons2UcCvZ7FdS-7-62" value="unit_product" style="shape=partialRectangle;connectable=0;fillColor=none;top=0;left=0;bottom=0;right=0;editable=1;overflow=hidden;fontColor=#A680B8;fontStyle=0" parent="CA9-zons2UcCvZ7FdS-7-61" vertex="1">
          <mxGeometry width="130" height="30" as="geometry" />
        </mxCell>
        <mxCell id="CA9-zons2UcCvZ7FdS-7-63" value="НП по вагонам (факт)" style="shape=partialRectangle;connectable=0;fillColor=none;top=0;left=0;bottom=0;right=0;align=left;spacingLeft=6;overflow=hidden;" parent="CA9-zons2UcCvZ7FdS-7-61" vertex="1">
          <mxGeometry x="130" width="250" height="30" as="geometry" />
        </mxCell>
        <mxCell id="CA9-zons2UcCvZ7FdS-7-64" value="" style="shape=partialRectangle;collapsible=0;dropTarget=0;pointerEvents=0;fillColor=none;top=0;left=0;bottom=0;right=0;points=[[0,0.5],[1,0.5]];portConstraint=eastwest;" parent="CA9-zons2UcCvZ7FdS-7-17" vertex="1">
          <mxGeometry y="390" width="380" height="30" as="geometry" />
        </mxCell>
        <mxCell id="CA9-zons2UcCvZ7FdS-7-65" value="unit_product_sap_code" style="shape=partialRectangle;connectable=0;fillColor=none;top=0;left=0;bottom=0;right=0;editable=1;overflow=hidden;fontColor=#A680B8;fontStyle=0" parent="CA9-zons2UcCvZ7FdS-7-64" vertex="1">
          <mxGeometry width="130" height="30" as="geometry" />
        </mxCell>
        <mxCell id="CA9-zons2UcCvZ7FdS-7-66" value="Код SAP продукта (факт)" style="shape=partialRectangle;connectable=0;fillColor=none;top=0;left=0;bottom=0;right=0;align=left;spacingLeft=6;overflow=hidden;" parent="CA9-zons2UcCvZ7FdS-7-64" vertex="1">
          <mxGeometry x="130" width="250" height="30" as="geometry" />
        </mxCell>
        <mxCell id="CA9-zons2UcCvZ7FdS-7-67" value="" style="shape=partialRectangle;collapsible=0;dropTarget=0;pointerEvents=0;fillColor=none;top=0;left=0;bottom=0;right=0;points=[[0,0.5],[1,0.5]];portConstraint=eastwest;" parent="CA9-zons2UcCvZ7FdS-7-17" vertex="1">
          <mxGeometry y="420" width="380" height="30" as="geometry" />
        </mxCell>
        <mxCell id="CA9-zons2UcCvZ7FdS-7-68" value="unit_quality_passport" style="shape=partialRectangle;connectable=0;fillColor=none;top=0;left=0;bottom=0;right=0;editable=1;overflow=hidden;fontColor=#A680B8;fontStyle=0" parent="CA9-zons2UcCvZ7FdS-7-67" vertex="1">
          <mxGeometry width="130" height="30" as="geometry" />
        </mxCell>
        <mxCell id="CA9-zons2UcCvZ7FdS-7-69" value="Номер паспорта качества по вагонам" style="shape=partialRectangle;connectable=0;fillColor=none;top=0;left=0;bottom=0;right=0;align=left;spacingLeft=6;overflow=hidden;" parent="CA9-zons2UcCvZ7FdS-7-67" vertex="1">
          <mxGeometry x="130" width="250" height="30" as="geometry" />
        </mxCell>
        <mxCell id="CA9-zons2UcCvZ7FdS-7-70" value="" style="shape=partialRectangle;collapsible=0;dropTarget=0;pointerEvents=0;fillColor=none;top=0;left=0;bottom=0;right=0;points=[[0,0.5],[1,0.5]];portConstraint=eastwest;" parent="CA9-zons2UcCvZ7FdS-7-17" vertex="1">
          <mxGeometry y="450" width="380" height="30" as="geometry" />
        </mxCell>
        <mxCell id="CA9-zons2UcCvZ7FdS-7-71" value="carriage_number" style="shape=partialRectangle;connectable=0;fillColor=none;top=0;left=0;bottom=0;right=0;editable=1;overflow=hidden;fontColor=#A680B8;fontStyle=0" parent="CA9-zons2UcCvZ7FdS-7-70" vertex="1">
          <mxGeometry width="130" height="30" as="geometry" />
        </mxCell>
        <mxCell id="CA9-zons2UcCvZ7FdS-7-72" value="Номер ЖДЦ" style="shape=partialRectangle;connectable=0;fillColor=none;top=0;left=0;bottom=0;right=0;align=left;spacingLeft=6;overflow=hidden;" parent="CA9-zons2UcCvZ7FdS-7-70" vertex="1">
          <mxGeometry x="130" width="250" height="30" as="geometry" />
        </mxCell>
        <mxCell id="CA9-zons2UcCvZ7FdS-7-73" value="" style="shape=partialRectangle;collapsible=0;dropTarget=0;pointerEvents=0;fillColor=none;top=0;left=0;bottom=0;right=0;points=[[0,0.5],[1,0.5]];portConstraint=eastwest;" parent="CA9-zons2UcCvZ7FdS-7-17" vertex="1">
          <mxGeometry y="480" width="380" height="30" as="geometry" />
        </mxCell>
        <mxCell id="CA9-zons2UcCvZ7FdS-7-74" value="unit_mass_netto" style="shape=partialRectangle;connectable=0;fillColor=none;top=0;left=0;bottom=0;right=0;editable=1;overflow=hidden;fontColor=#97D077;" parent="CA9-zons2UcCvZ7FdS-7-73" vertex="1">
          <mxGeometry width="130" height="30" as="geometry" />
        </mxCell>
        <mxCell id="CA9-zons2UcCvZ7FdS-7-75" value="Масса нетто по продукту (факт)" style="shape=partialRectangle;connectable=0;fillColor=none;top=0;left=0;bottom=0;right=0;align=left;spacingLeft=6;overflow=hidden;" parent="CA9-zons2UcCvZ7FdS-7-73" vertex="1">
          <mxGeometry x="130" width="250" height="30" as="geometry" />
        </mxCell>
        <mxCell id="CA9-zons2UcCvZ7FdS-7-76" value="" style="shape=partialRectangle;collapsible=0;dropTarget=0;pointerEvents=0;fillColor=none;top=0;left=0;bottom=0;right=0;points=[[0,0.5],[1,0.5]];portConstraint=eastwest;" parent="CA9-zons2UcCvZ7FdS-7-17" vertex="1">
          <mxGeometry y="510" width="380" height="30" as="geometry" />
        </mxCell>
        <mxCell id="CA9-zons2UcCvZ7FdS-7-77" value="unit_mass_tara" style="shape=partialRectangle;connectable=0;fillColor=none;top=0;left=0;bottom=0;right=0;editable=1;overflow=hidden;fontColor=#97D077;" parent="CA9-zons2UcCvZ7FdS-7-76" vertex="1">
          <mxGeometry width="130" height="30" as="geometry" />
        </mxCell>
        <mxCell id="CA9-zons2UcCvZ7FdS-7-78" value="Масса тара по продукту (факт)" style="shape=partialRectangle;connectable=0;fillColor=none;top=0;left=0;bottom=0;right=0;align=left;spacingLeft=6;overflow=hidden;" parent="CA9-zons2UcCvZ7FdS-7-76" vertex="1">
          <mxGeometry x="130" width="250" height="30" as="geometry" />
        </mxCell>
        <mxCell id="CA9-zons2UcCvZ7FdS-7-79" value="" style="shape=partialRectangle;collapsible=0;dropTarget=0;pointerEvents=0;fillColor=none;top=0;left=0;bottom=0;right=0;points=[[0,0.5],[1,0.5]];portConstraint=eastwest;fontColor=#A680B8;strokeColor=#B5739D;" parent="CA9-zons2UcCvZ7FdS-7-17" vertex="1">
          <mxGeometry y="540" width="380" height="30" as="geometry" />
        </mxCell>
        <mxCell id="CA9-zons2UcCvZ7FdS-7-80" value="total_mass_netto" style="shape=partialRectangle;connectable=0;fillColor=none;top=0;left=0;bottom=0;right=0;editable=1;overflow=hidden;fontColor=#97D077;" parent="CA9-zons2UcCvZ7FdS-7-79" vertex="1">
          <mxGeometry width="130" height="30" as="geometry" />
        </mxCell>
        <mxCell id="CA9-zons2UcCvZ7FdS-7-81" value="Общая масса нетто (факт)" style="shape=partialRectangle;connectable=0;fillColor=none;top=0;left=0;bottom=0;right=0;align=left;spacingLeft=6;overflow=hidden;" parent="CA9-zons2UcCvZ7FdS-7-79" vertex="1">
          <mxGeometry x="130" width="250" height="30" as="geometry" />
        </mxCell>
        <mxCell id="CA9-zons2UcCvZ7FdS-7-82" value="" style="shape=partialRectangle;collapsible=0;dropTarget=0;pointerEvents=0;fillColor=none;top=0;left=0;bottom=0;right=0;points=[[0,0.5],[1,0.5]];portConstraint=eastwest;fontColor=#A680B8;strokeColor=#B5739D;" parent="CA9-zons2UcCvZ7FdS-7-17" vertex="1">
          <mxGeometry y="570" width="380" height="30" as="geometry" />
        </mxCell>
        <mxCell id="CA9-zons2UcCvZ7FdS-7-83" value="total_mass_tara" style="shape=partialRectangle;connectable=0;fillColor=none;top=0;left=0;bottom=0;right=0;editable=1;overflow=hidden;fontColor=#97D077;" parent="CA9-zons2UcCvZ7FdS-7-82" vertex="1">
          <mxGeometry width="130" height="30" as="geometry" />
        </mxCell>
        <mxCell id="CA9-zons2UcCvZ7FdS-7-84" value="Общая масса тара (факт)" style="shape=partialRectangle;connectable=0;fillColor=none;top=0;left=0;bottom=0;right=0;align=left;spacingLeft=6;overflow=hidden;" parent="CA9-zons2UcCvZ7FdS-7-82" vertex="1">
          <mxGeometry x="130" width="250" height="30" as="geometry" />
        </mxCell>
        <mxCell id="CA9-zons2UcCvZ7FdS-7-85" value="" style="shape=partialRectangle;collapsible=0;dropTarget=0;pointerEvents=0;fillColor=none;top=0;left=0;bottom=0;right=0;points=[[0,0.5],[1,0.5]];portConstraint=eastwest;fontColor=#A680B8;strokeColor=#B5739D;" parent="CA9-zons2UcCvZ7FdS-7-17" vertex="1">
          <mxGeometry y="600" width="380" height="30" as="geometry" />
        </mxCell>
        <mxCell id="CA9-zons2UcCvZ7FdS-7-86" value="mass_precision" style="shape=partialRectangle;connectable=0;fillColor=none;top=0;left=0;bottom=0;right=0;editable=1;overflow=hidden;fontColor=#97D077;" parent="CA9-zons2UcCvZ7FdS-7-85" vertex="1">
          <mxGeometry width="130" height="30" as="geometry" />
        </mxCell>
        <mxCell id="CA9-zons2UcCvZ7FdS-7-87" value="Показатель точности определения массы" style="shape=partialRectangle;connectable=0;fillColor=none;top=0;left=0;bottom=0;right=0;align=left;spacingLeft=6;overflow=hidden;" parent="CA9-zons2UcCvZ7FdS-7-85" vertex="1">
          <mxGeometry x="130" width="250" height="30" as="geometry" />
        </mxCell>
        <mxCell id="CA9-zons2UcCvZ7FdS-7-88" value="" style="shape=partialRectangle;collapsible=0;dropTarget=0;pointerEvents=0;fillColor=none;top=0;left=0;bottom=0;right=0;points=[[0,0.5],[1,0.5]];portConstraint=eastwest;fontColor=#A680B8;strokeColor=#B5739D;" parent="CA9-zons2UcCvZ7FdS-7-17" vertex="1">
          <mxGeometry y="630" width="380" height="30" as="geometry" />
        </mxCell>
        <mxCell id="CA9-zons2UcCvZ7FdS-7-89" value="method_mass_netto" style="shape=partialRectangle;connectable=0;fillColor=none;top=0;left=0;bottom=0;right=0;editable=1;overflow=hidden;fontColor=#A680B8;" parent="CA9-zons2UcCvZ7FdS-7-88" vertex="1">
          <mxGeometry width="130" height="30" as="geometry" />
        </mxCell>
        <mxCell id="CA9-zons2UcCvZ7FdS-7-90" value="Способ определения массы" style="shape=partialRectangle;connectable=0;fillColor=none;top=0;left=0;bottom=0;right=0;align=left;spacingLeft=6;overflow=hidden;" parent="CA9-zons2UcCvZ7FdS-7-88" vertex="1">
          <mxGeometry x="130" width="250" height="30" as="geometry" />
        </mxCell>
        <mxCell id="CA9-zons2UcCvZ7FdS-7-91" value="" style="shape=partialRectangle;collapsible=0;dropTarget=0;pointerEvents=0;fillColor=none;top=0;left=0;bottom=0;right=0;points=[[0,0.5],[1,0.5]];portConstraint=eastwest;fontColor=#A680B8;strokeColor=#B5739D;" parent="CA9-zons2UcCvZ7FdS-7-17" vertex="1">
          <mxGeometry y="660" width="380" height="30" as="geometry" />
        </mxCell>
        <mxCell id="CA9-zons2UcCvZ7FdS-7-92" value="komment" style="shape=partialRectangle;connectable=0;fillColor=none;top=0;left=0;bottom=0;right=0;editable=1;overflow=hidden;fontColor=#A680B8;" parent="CA9-zons2UcCvZ7FdS-7-91" vertex="1">
          <mxGeometry width="130" height="30" as="geometry" />
        </mxCell>
        <mxCell id="CA9-zons2UcCvZ7FdS-7-93" value="Комментарии" style="shape=partialRectangle;connectable=0;fillColor=none;top=0;left=0;bottom=0;right=0;align=left;spacingLeft=6;overflow=hidden;" parent="CA9-zons2UcCvZ7FdS-7-91" vertex="1">
          <mxGeometry x="130" width="250" height="30" as="geometry" />
        </mxCell>
        <mxCell id="CA9-zons2UcCvZ7FdS-7-94" value="" style="shape=partialRectangle;collapsible=0;dropTarget=0;pointerEvents=0;fillColor=none;top=0;left=0;bottom=0;right=0;points=[[0,0.5],[1,0.5]];portConstraint=eastwest;fontColor=#A680B8;strokeColor=#B5739D;" parent="CA9-zons2UcCvZ7FdS-7-17" vertex="1">
          <mxGeometry y="690" width="380" height="30" as="geometry" />
        </mxCell>
        <mxCell id="CA9-zons2UcCvZ7FdS-7-95" value="sap_doc_number" style="shape=partialRectangle;connectable=0;fillColor=none;top=0;left=0;bottom=0;right=0;editable=1;overflow=hidden;fontColor=#A680B8;" parent="CA9-zons2UcCvZ7FdS-7-94" vertex="1">
          <mxGeometry width="130" height="30" as="geometry" />
        </mxCell>
        <mxCell id="CA9-zons2UcCvZ7FdS-7-96" value="Номер договора из САП сбыт" style="shape=partialRectangle;connectable=0;fillColor=none;top=0;left=0;bottom=0;right=0;align=left;spacingLeft=6;overflow=hidden;" parent="CA9-zons2UcCvZ7FdS-7-94" vertex="1">
          <mxGeometry x="130" width="250" height="30" as="geometry" />
        </mxCell>
        <mxCell id="CA9-zons2UcCvZ7FdS-7-97" value="" style="shape=partialRectangle;collapsible=0;dropTarget=0;pointerEvents=0;fillColor=none;top=0;left=0;bottom=0;right=0;points=[[0,0.5],[1,0.5]];portConstraint=eastwest;fontColor=#A680B8;strokeColor=#B5739D;" parent="CA9-zons2UcCvZ7FdS-7-17" vertex="1">
          <mxGeometry y="720" width="380" height="30" as="geometry" />
        </mxCell>
        <mxCell id="CA9-zons2UcCvZ7FdS-7-98" value="tank_id" style="shape=partialRectangle;connectable=0;fillColor=none;top=0;left=0;bottom=0;right=0;editable=1;overflow=hidden;fontColor=#A680B8;" parent="CA9-zons2UcCvZ7FdS-7-97" vertex="1">
          <mxGeometry width="130" height="30" as="geometry" />
        </mxCell>
        <mxCell id="CA9-zons2UcCvZ7FdS-7-99" value="Идентификатор резервуара (ЛИМС)" style="shape=partialRectangle;connectable=0;fillColor=none;top=0;left=0;bottom=0;right=0;align=left;spacingLeft=6;overflow=hidden;" parent="CA9-zons2UcCvZ7FdS-7-97" vertex="1">
          <mxGeometry x="130" width="250" height="30" as="geometry" />
        </mxCell>
        <mxCell id="CA9-zons2UcCvZ7FdS-7-100" value="" style="shape=partialRectangle;collapsible=0;dropTarget=0;pointerEvents=0;fillColor=none;top=0;left=0;bottom=0;right=0;points=[[0,0.5],[1,0.5]];portConstraint=eastwest;fontColor=#A680B8;strokeColor=#B5739D;" parent="CA9-zons2UcCvZ7FdS-7-17" vertex="1">
          <mxGeometry y="750" width="380" height="30" as="geometry" />
        </mxCell>
        <mxCell id="CA9-zons2UcCvZ7FdS-7-101" value="tank_name" style="shape=partialRectangle;connectable=0;fillColor=none;top=0;left=0;bottom=0;right=0;editable=1;overflow=hidden;fontColor=#A680B8;" parent="CA9-zons2UcCvZ7FdS-7-100" vertex="1">
          <mxGeometry width="130" height="30" as="geometry" />
        </mxCell>
        <mxCell id="CA9-zons2UcCvZ7FdS-7-102" value="Название резервуара (ЛИМС)" style="shape=partialRectangle;connectable=0;fillColor=none;top=0;left=0;bottom=0;right=0;align=left;spacingLeft=6;overflow=hidden;" parent="CA9-zons2UcCvZ7FdS-7-100" vertex="1">
          <mxGeometry x="130" width="250" height="30" as="geometry" />
        </mxCell>
        <mxCell id="CA9-zons2UcCvZ7FdS-7-103" value="" style="shape=partialRectangle;collapsible=0;dropTarget=0;pointerEvents=0;fillColor=none;top=0;left=0;bottom=0;right=0;points=[[0,0.5],[1,0.5]];portConstraint=eastwest;fontColor=#A680B8;strokeColor=#B5739D;" parent="CA9-zons2UcCvZ7FdS-7-17" vertex="1">
          <mxGeometry y="780" width="380" height="30" as="geometry" />
        </mxCell>
        <mxCell id="CA9-zons2UcCvZ7FdS-7-104" value="unitname" style="shape=partialRectangle;connectable=0;fillColor=none;top=0;left=0;bottom=0;right=0;editable=1;overflow=hidden;fontColor=#A680B8;" parent="CA9-zons2UcCvZ7FdS-7-103" vertex="1">
          <mxGeometry width="130" height="30" as="geometry" />
        </mxCell>
        <mxCell id="CA9-zons2UcCvZ7FdS-7-105" value="Производство (ЛИМС)" style="shape=partialRectangle;connectable=0;fillColor=none;top=0;left=0;bottom=0;right=0;align=left;spacingLeft=6;overflow=hidden;" parent="CA9-zons2UcCvZ7FdS-7-103" vertex="1">
          <mxGeometry x="130" width="250" height="30" as="geometry" />
        </mxCell>
        <mxCell id="CA9-zons2UcCvZ7FdS-7-106" value="" style="shape=partialRectangle;collapsible=0;dropTarget=0;pointerEvents=0;fillColor=none;top=0;left=0;bottom=0;right=0;points=[[0,0.5],[1,0.5]];portConstraint=eastwest;fontColor=#A680B8;strokeColor=#B5739D;" parent="CA9-zons2UcCvZ7FdS-7-17" vertex="1">
          <mxGeometry y="810" width="380" height="30" as="geometry" />
        </mxCell>
        <mxCell id="CA9-zons2UcCvZ7FdS-7-107" value="techdate" style="shape=partialRectangle;connectable=0;fillColor=none;top=0;left=0;bottom=0;right=0;editable=1;overflow=hidden;fontColor=#67AB9F;" parent="CA9-zons2UcCvZ7FdS-7-106" vertex="1">
          <mxGeometry width="130" height="30" as="geometry" />
        </mxCell>
        <mxCell id="CA9-zons2UcCvZ7FdS-7-108" value="Дата паспортизации (ЛИМС)" style="shape=partialRectangle;connectable=0;fillColor=none;top=0;left=0;bottom=0;right=0;align=left;spacingLeft=6;overflow=hidden;" parent="CA9-zons2UcCvZ7FdS-7-106" vertex="1">
          <mxGeometry x="130" width="250" height="30" as="geometry" />
        </mxCell>
        <mxCell id="CA9-zons2UcCvZ7FdS-7-127" value="Легенда" style="swimlane;fontStyle=0;childLayout=stackLayout;horizontal=1;startSize=26;horizontalStack=0;resizeParent=1;resizeParentMax=0;resizeLast=0;collapsible=1;marginBottom=0;align=center;fontSize=14;fillColor=none;" parent="1" vertex="1">
          <mxGeometry x="-520" width="160" height="176" as="geometry" />
        </mxCell>
        <mxCell id="CA9-zons2UcCvZ7FdS-7-128" value="string | text" style="text;strokeColor=none;fillColor=none;spacingLeft=4;spacingRight=4;overflow=hidden;rotatable=0;points=[[0,0.5],[1,0.5]];portConstraint=eastwest;fontSize=12;fontColor=#A680B8;fontStyle=1" parent="CA9-zons2UcCvZ7FdS-7-127" vertex="1">
          <mxGeometry y="26" width="160" height="30" as="geometry" />
        </mxCell>
        <mxCell id="CA9-zons2UcCvZ7FdS-7-129" value="date" style="text;strokeColor=none;fillColor=none;spacingLeft=4;spacingRight=4;overflow=hidden;rotatable=0;points=[[0,0.5],[1,0.5]];portConstraint=eastwest;fontSize=12;fontColor=#7EA6E0;fontStyle=1" parent="CA9-zons2UcCvZ7FdS-7-127" vertex="1">
          <mxGeometry y="56" width="160" height="30" as="geometry" />
        </mxCell>
        <mxCell id="CA9-zons2UcCvZ7FdS-7-130" value="timestamp" style="text;strokeColor=none;fillColor=none;spacingLeft=4;spacingRight=4;overflow=hidden;rotatable=0;points=[[0,0.5],[1,0.5]];portConstraint=eastwest;fontSize=12;fontColor=#67AB9F;fontStyle=1" parent="CA9-zons2UcCvZ7FdS-7-127" vertex="1">
          <mxGeometry y="86" width="160" height="30" as="geometry" />
        </mxCell>
        <mxCell id="CA9-zons2UcCvZ7FdS-7-131" value="double" style="text;strokeColor=none;fillColor=none;spacingLeft=4;spacingRight=4;overflow=hidden;rotatable=0;points=[[0,0.5],[1,0.5]];portConstraint=eastwest;fontSize=12;fontColor=#97D077;fontStyle=1" parent="CA9-zons2UcCvZ7FdS-7-127" vertex="1">
          <mxGeometry y="116" width="160" height="30" as="geometry" />
        </mxCell>
        <mxCell id="CA9-zons2UcCvZ7FdS-7-214" value="integer" style="text;strokeColor=none;fillColor=none;spacingLeft=4;spacingRight=4;overflow=hidden;rotatable=0;points=[[0,0.5],[1,0.5]];portConstraint=eastwest;fontSize=12;fontColor=#EA6B66;" parent="CA9-zons2UcCvZ7FdS-7-127" vertex="1">
          <mxGeometry y="146" width="160" height="30" as="geometry" />
        </mxCell>
        <mxCell id="OKTao6-8tQ2HSba5QrjD-51" style="edgeStyle=orthogonalEdgeStyle;rounded=0;orthogonalLoop=1;jettySize=auto;html=1;exitX=0.5;exitY=1;exitDx=0;exitDy=0;dashed=1;fontColor=#EA6B66;entryX=0.5;entryY=0;entryDx=0;entryDy=0;" parent="1" source="CA9-zons2UcCvZ7FdS-7-132" target="boM8Fp75N3sVBavPqf3y-151" edge="1">
          <mxGeometry relative="1" as="geometry" />
        </mxCell>
        <mxCell id="CA9-zons2UcCvZ7FdS-7-132" value="Данные по паспортным показателям качества для задачи &#xa;оценки запасов по качеству - qc_npz.stocks_indexes_data" style="shape=table;startSize=30;container=1;collapsible=1;childLayout=tableLayout;fixedRows=1;rowLines=0;fontStyle=1;align=center;resizeLast=1;fillColor=#e3c800;strokeColor=#B09500;fontColor=#000000;" parent="1" vertex="1">
          <mxGeometry x="1120" y="724" width="400" height="126" as="geometry">
            <mxRectangle x="590" y="6" width="380" height="30" as="alternateBounds" />
          </mxGeometry>
        </mxCell>
        <mxCell id="OKTao6-8tQ2HSba5QrjD-60" value="" style="shape=partialRectangle;collapsible=0;dropTarget=0;pointerEvents=0;fillColor=none;top=0;left=0;bottom=1;right=0;points=[[0,0.5],[1,0.5]];portConstraint=eastwest;fontColor=#A680B8;strokeColor=#FFD966;" parent="CA9-zons2UcCvZ7FdS-7-132" vertex="1">
          <mxGeometry y="30" width="400" height="30" as="geometry" />
        </mxCell>
        <mxCell id="OKTao6-8tQ2HSba5QrjD-61" value="id" style="shape=partialRectangle;connectable=0;fillColor=none;top=0;left=0;bottom=0;right=0;fontStyle=1;overflow=hidden;fontColor=#EA6B66;" parent="OKTao6-8tQ2HSba5QrjD-60" vertex="1">
          <mxGeometry width="150" height="30" as="geometry" />
        </mxCell>
        <mxCell id="OKTao6-8tQ2HSba5QrjD-62" value="Идентификатор" style="shape=partialRectangle;connectable=0;fillColor=none;top=0;left=0;bottom=0;right=0;align=left;spacingLeft=6;fontStyle=5;overflow=hidden;" parent="OKTao6-8tQ2HSba5QrjD-60" vertex="1">
          <mxGeometry x="150" width="250" height="30" as="geometry" />
        </mxCell>
        <mxCell id="CA9-zons2UcCvZ7FdS-7-175" value="" style="shape=partialRectangle;collapsible=0;dropTarget=0;pointerEvents=0;fillColor=none;top=0;left=0;bottom=0;right=0;points=[[0,0.5],[1,0.5]];portConstraint=eastwest;" parent="CA9-zons2UcCvZ7FdS-7-132" vertex="1">
          <mxGeometry y="60" width="400" height="30" as="geometry" />
        </mxCell>
        <mxCell id="CA9-zons2UcCvZ7FdS-7-176" value="attr_id" style="shape=partialRectangle;connectable=0;fillColor=none;top=0;left=0;bottom=0;right=0;editable=1;overflow=hidden;fontStyle=0;strokeColor=#EA6B66;fontColor=#EA6B66;" parent="CA9-zons2UcCvZ7FdS-7-175" vertex="1">
          <mxGeometry width="150" height="30" as="geometry" />
        </mxCell>
        <mxCell id="CA9-zons2UcCvZ7FdS-7-177" value="Идентификатор показателя качества" style="shape=partialRectangle;connectable=0;fillColor=none;top=0;left=0;bottom=0;right=0;align=left;spacingLeft=6;overflow=hidden;" parent="CA9-zons2UcCvZ7FdS-7-175" vertex="1">
          <mxGeometry x="150" width="250" height="30" as="geometry" />
        </mxCell>
        <mxCell id="CA9-zons2UcCvZ7FdS-7-178" value="" style="shape=partialRectangle;collapsible=0;dropTarget=0;pointerEvents=0;fillColor=none;top=0;left=0;bottom=0;right=0;points=[[0,0.5],[1,0.5]];portConstraint=eastwest;" parent="CA9-zons2UcCvZ7FdS-7-132" vertex="1">
          <mxGeometry y="90" width="400" height="30" as="geometry" />
        </mxCell>
        <mxCell id="CA9-zons2UcCvZ7FdS-7-179" value="value" style="shape=partialRectangle;connectable=0;fillColor=none;top=0;left=0;bottom=0;right=0;editable=1;overflow=hidden;fontColor=#97D077;" parent="CA9-zons2UcCvZ7FdS-7-178" vertex="1">
          <mxGeometry width="150" height="30" as="geometry" />
        </mxCell>
        <mxCell id="CA9-zons2UcCvZ7FdS-7-180" value="Фактическое значение показателя &#xa;качества" style="shape=partialRectangle;connectable=0;fillColor=none;top=0;left=0;bottom=0;right=0;align=left;spacingLeft=6;overflow=hidden;" parent="CA9-zons2UcCvZ7FdS-7-178" vertex="1">
          <mxGeometry x="150" width="250" height="30" as="geometry" />
        </mxCell>
        <mxCell id="CA9-zons2UcCvZ7FdS-7-264" value="Экспортные товарные партии - ProductBatch" style="shape=table;startSize=30;container=1;collapsible=1;childLayout=tableLayout;fixedRows=1;rowLines=0;fontStyle=1;align=center;resizeLast=1;fontColor=#ffffff;fillColor=#6d8764;strokeColor=#97D077;" parent="1" vertex="1">
          <mxGeometry x="230" y="1480" width="280" height="360" as="geometry" />
        </mxCell>
        <mxCell id="CA9-zons2UcCvZ7FdS-7-268" value="" style="shape=partialRectangle;collapsible=0;dropTarget=0;pointerEvents=0;fillColor=none;top=0;left=0;bottom=1;right=0;points=[[0,0.5],[1,0.5]];portConstraint=eastwest;strokeColor=#97D077;" parent="CA9-zons2UcCvZ7FdS-7-264" vertex="1">
          <mxGeometry y="30" width="280" height="30" as="geometry" />
        </mxCell>
        <mxCell id="CA9-zons2UcCvZ7FdS-7-269" value="id" style="shape=partialRectangle;connectable=0;fillColor=none;top=0;left=0;bottom=0;right=0;fontStyle=1;overflow=hidden;fontColor=#EA6B66;" parent="CA9-zons2UcCvZ7FdS-7-268" vertex="1">
          <mxGeometry width="90" height="30" as="geometry" />
        </mxCell>
        <mxCell id="CA9-zons2UcCvZ7FdS-7-270" value="Идентификатор" style="shape=partialRectangle;connectable=0;fillColor=none;top=0;left=0;bottom=0;right=0;align=left;spacingLeft=6;fontStyle=5;overflow=hidden;" parent="CA9-zons2UcCvZ7FdS-7-268" vertex="1">
          <mxGeometry x="90" width="190" height="30" as="geometry" />
        </mxCell>
        <mxCell id="CA9-zons2UcCvZ7FdS-7-271" value="" style="shape=partialRectangle;collapsible=0;dropTarget=0;pointerEvents=0;fillColor=none;top=0;left=0;bottom=0;right=0;points=[[0,0.5],[1,0.5]];portConstraint=eastwest;" parent="CA9-zons2UcCvZ7FdS-7-264" vertex="1">
          <mxGeometry y="60" width="280" height="30" as="geometry" />
        </mxCell>
        <mxCell id="CA9-zons2UcCvZ7FdS-7-272" value="no" style="shape=partialRectangle;connectable=0;fillColor=none;top=0;left=0;bottom=0;right=0;editable=1;overflow=hidden;fontColor=#EA6B66;" parent="CA9-zons2UcCvZ7FdS-7-271" vertex="1">
          <mxGeometry width="90" height="30" as="geometry" />
        </mxCell>
        <mxCell id="CA9-zons2UcCvZ7FdS-7-273" value="№ партии" style="shape=partialRectangle;connectable=0;fillColor=none;top=0;left=0;bottom=0;right=0;align=left;spacingLeft=6;overflow=hidden;" parent="CA9-zons2UcCvZ7FdS-7-271" vertex="1">
          <mxGeometry x="90" width="190" height="30" as="geometry" />
        </mxCell>
        <mxCell id="CA9-zons2UcCvZ7FdS-7-274" value="" style="shape=partialRectangle;collapsible=0;dropTarget=0;pointerEvents=0;fillColor=none;top=0;left=0;bottom=0;right=0;points=[[0,0.5],[1,0.5]];portConstraint=eastwest;" parent="CA9-zons2UcCvZ7FdS-7-264" vertex="1">
          <mxGeometry y="90" width="280" height="30" as="geometry" />
        </mxCell>
        <mxCell id="CA9-zons2UcCvZ7FdS-7-275" value="product_name" style="shape=partialRectangle;connectable=0;fillColor=none;top=0;left=0;bottom=0;right=0;editable=1;overflow=hidden;fontColor=#A680B8;" parent="CA9-zons2UcCvZ7FdS-7-274" vertex="1">
          <mxGeometry width="90" height="30" as="geometry" />
        </mxCell>
        <mxCell id="CA9-zons2UcCvZ7FdS-7-276" value="Продукт" style="shape=partialRectangle;connectable=0;fillColor=none;top=0;left=0;bottom=0;right=0;align=left;spacingLeft=6;overflow=hidden;" parent="CA9-zons2UcCvZ7FdS-7-274" vertex="1">
          <mxGeometry x="90" width="190" height="30" as="geometry" />
        </mxCell>
        <mxCell id="CA9-zons2UcCvZ7FdS-7-277" value="" style="shape=partialRectangle;collapsible=0;dropTarget=0;pointerEvents=0;fillColor=none;top=0;left=0;bottom=0;right=0;points=[[0,0.5],[1,0.5]];portConstraint=eastwest;fontColor=#EA6B66;strokeColor=#B5739D;" parent="CA9-zons2UcCvZ7FdS-7-264" vertex="1">
          <mxGeometry y="120" width="280" height="30" as="geometry" />
        </mxCell>
        <mxCell id="CA9-zons2UcCvZ7FdS-7-278" value="base" style="shape=partialRectangle;connectable=0;fillColor=none;top=0;left=0;bottom=0;right=0;editable=1;overflow=hidden;fontColor=#A680B8;" parent="CA9-zons2UcCvZ7FdS-7-277" vertex="1">
          <mxGeometry width="90" height="30" as="geometry" />
        </mxCell>
        <mxCell id="CA9-zons2UcCvZ7FdS-7-279" value="Базис поставки" style="shape=partialRectangle;connectable=0;fillColor=none;top=0;left=0;bottom=0;right=0;align=left;spacingLeft=6;overflow=hidden;" parent="CA9-zons2UcCvZ7FdS-7-277" vertex="1">
          <mxGeometry x="90" width="190" height="30" as="geometry" />
        </mxCell>
        <mxCell id="CA9-zons2UcCvZ7FdS-7-280" value="" style="shape=partialRectangle;collapsible=0;dropTarget=0;pointerEvents=0;fillColor=none;top=0;left=0;bottom=0;right=0;points=[[0,0.5],[1,0.5]];portConstraint=eastwest;fontColor=#EA6B66;strokeColor=#B5739D;" parent="CA9-zons2UcCvZ7FdS-7-264" vertex="1">
          <mxGeometry y="150" width="280" height="30" as="geometry" />
        </mxCell>
        <mxCell id="CA9-zons2UcCvZ7FdS-7-281" value="" style="shape=partialRectangle;connectable=0;fillColor=none;top=0;left=0;bottom=0;right=0;editable=1;overflow=hidden;" parent="CA9-zons2UcCvZ7FdS-7-280" vertex="1">
          <mxGeometry width="90" height="30" as="geometry" />
        </mxCell>
        <mxCell id="CA9-zons2UcCvZ7FdS-7-282" value="Контрагент" style="shape=partialRectangle;connectable=0;fillColor=none;top=0;left=0;bottom=0;right=0;align=left;spacingLeft=6;overflow=hidden;" parent="CA9-zons2UcCvZ7FdS-7-280" vertex="1">
          <mxGeometry x="90" width="190" height="30" as="geometry" />
        </mxCell>
        <mxCell id="CA9-zons2UcCvZ7FdS-7-283" value="" style="shape=partialRectangle;collapsible=0;dropTarget=0;pointerEvents=0;fillColor=none;top=0;left=0;bottom=0;right=0;points=[[0,0.5],[1,0.5]];portConstraint=eastwest;fontColor=#EA6B66;strokeColor=#B5739D;" parent="CA9-zons2UcCvZ7FdS-7-264" vertex="1">
          <mxGeometry y="180" width="280" height="30" as="geometry" />
        </mxCell>
        <mxCell id="CA9-zons2UcCvZ7FdS-7-284" value="" style="shape=partialRectangle;connectable=0;fillColor=none;top=0;left=0;bottom=0;right=0;editable=1;overflow=hidden;" parent="CA9-zons2UcCvZ7FdS-7-283" vertex="1">
          <mxGeometry width="90" height="30" as="geometry" />
        </mxCell>
        <mxCell id="CA9-zons2UcCvZ7FdS-7-285" value="Дата коносамента" style="shape=partialRectangle;connectable=0;fillColor=none;top=0;left=0;bottom=0;right=0;align=left;spacingLeft=6;overflow=hidden;" parent="CA9-zons2UcCvZ7FdS-7-283" vertex="1">
          <mxGeometry x="90" width="190" height="30" as="geometry" />
        </mxCell>
        <mxCell id="CA9-zons2UcCvZ7FdS-7-286" value="" style="shape=partialRectangle;collapsible=0;dropTarget=0;pointerEvents=0;fillColor=none;top=0;left=0;bottom=0;right=0;points=[[0,0.5],[1,0.5]];portConstraint=eastwest;fontColor=#EA6B66;strokeColor=#B5739D;" parent="CA9-zons2UcCvZ7FdS-7-264" vertex="1">
          <mxGeometry y="210" width="280" height="30" as="geometry" />
        </mxCell>
        <mxCell id="CA9-zons2UcCvZ7FdS-7-287" value="" style="shape=partialRectangle;connectable=0;fillColor=none;top=0;left=0;bottom=0;right=0;editable=1;overflow=hidden;" parent="CA9-zons2UcCvZ7FdS-7-286" vertex="1">
          <mxGeometry width="90" height="30" as="geometry" />
        </mxCell>
        <mxCell id="CA9-zons2UcCvZ7FdS-7-288" value="Танкер" style="shape=partialRectangle;connectable=0;fillColor=none;top=0;left=0;bottom=0;right=0;align=left;spacingLeft=6;overflow=hidden;" parent="CA9-zons2UcCvZ7FdS-7-286" vertex="1">
          <mxGeometry x="90" width="190" height="30" as="geometry" />
        </mxCell>
        <mxCell id="CA9-zons2UcCvZ7FdS-7-289" value="" style="shape=partialRectangle;collapsible=0;dropTarget=0;pointerEvents=0;fillColor=none;top=0;left=0;bottom=0;right=0;points=[[0,0.5],[1,0.5]];portConstraint=eastwest;fontColor=#EA6B66;strokeColor=#B5739D;" parent="CA9-zons2UcCvZ7FdS-7-264" vertex="1">
          <mxGeometry y="240" width="280" height="30" as="geometry" />
        </mxCell>
        <mxCell id="CA9-zons2UcCvZ7FdS-7-290" value="start" style="shape=partialRectangle;connectable=0;fillColor=none;top=0;left=0;bottom=0;right=0;editable=1;overflow=hidden;fontColor=#7EA6E0;" parent="CA9-zons2UcCvZ7FdS-7-289" vertex="1">
          <mxGeometry width="90" height="30" as="geometry" />
        </mxCell>
        <mxCell id="CA9-zons2UcCvZ7FdS-7-291" value="Дата начала накопления партии &#xa;с завода" style="shape=partialRectangle;connectable=0;fillColor=none;top=0;left=0;bottom=0;right=0;align=left;spacingLeft=6;overflow=hidden;" parent="CA9-zons2UcCvZ7FdS-7-289" vertex="1">
          <mxGeometry x="90" width="190" height="30" as="geometry" />
        </mxCell>
        <mxCell id="CA9-zons2UcCvZ7FdS-7-292" value="" style="shape=partialRectangle;collapsible=0;dropTarget=0;pointerEvents=0;fillColor=none;top=0;left=0;bottom=0;right=0;points=[[0,0.5],[1,0.5]];portConstraint=eastwest;fontColor=#EA6B66;strokeColor=#B5739D;" parent="CA9-zons2UcCvZ7FdS-7-264" vertex="1">
          <mxGeometry y="270" width="280" height="30" as="geometry" />
        </mxCell>
        <mxCell id="CA9-zons2UcCvZ7FdS-7-293" value="end" style="shape=partialRectangle;connectable=0;fillColor=none;top=0;left=0;bottom=0;right=0;editable=1;overflow=hidden;fontColor=#7EA6E0;" parent="CA9-zons2UcCvZ7FdS-7-292" vertex="1">
          <mxGeometry width="90" height="30" as="geometry" />
        </mxCell>
        <mxCell id="CA9-zons2UcCvZ7FdS-7-294" value="Дата окончания накопления &#xa;партии с завода" style="shape=partialRectangle;connectable=0;fillColor=none;top=0;left=0;bottom=0;right=0;align=left;spacingLeft=6;overflow=hidden;" parent="CA9-zons2UcCvZ7FdS-7-292" vertex="1">
          <mxGeometry x="90" width="190" height="30" as="geometry" />
        </mxCell>
        <mxCell id="CA9-zons2UcCvZ7FdS-7-295" value="" style="shape=partialRectangle;collapsible=0;dropTarget=0;pointerEvents=0;fillColor=none;top=0;left=0;bottom=0;right=0;points=[[0,0.5],[1,0.5]];portConstraint=eastwest;fontColor=#EA6B66;strokeColor=#B5739D;" parent="CA9-zons2UcCvZ7FdS-7-264" vertex="1">
          <mxGeometry y="300" width="280" height="30" as="geometry" />
        </mxCell>
        <mxCell id="CA9-zons2UcCvZ7FdS-7-296" value="weight" style="shape=partialRectangle;connectable=0;fillColor=none;top=0;left=0;bottom=0;right=0;editable=1;overflow=hidden;fontColor=#97D077;" parent="CA9-zons2UcCvZ7FdS-7-295" vertex="1">
          <mxGeometry width="90" height="30" as="geometry" />
        </mxCell>
        <mxCell id="CA9-zons2UcCvZ7FdS-7-297" value="Вес продукта" style="shape=partialRectangle;connectable=0;fillColor=none;top=0;left=0;bottom=0;right=0;align=left;spacingLeft=6;overflow=hidden;" parent="CA9-zons2UcCvZ7FdS-7-295" vertex="1">
          <mxGeometry x="90" width="190" height="30" as="geometry" />
        </mxCell>
        <mxCell id="boM8Fp75N3sVBavPqf3y-1" value="" style="shape=partialRectangle;collapsible=0;dropTarget=0;pointerEvents=0;fillColor=none;top=0;left=0;bottom=0;right=0;points=[[0,0.5],[1,0.5]];portConstraint=eastwest;" parent="CA9-zons2UcCvZ7FdS-7-264" vertex="1">
          <mxGeometry y="330" width="280" height="30" as="geometry" />
        </mxCell>
        <mxCell id="boM8Fp75N3sVBavPqf3y-2" value="comment" style="shape=partialRectangle;connectable=0;fillColor=none;top=0;left=0;bottom=0;right=0;editable=1;overflow=hidden;fontColor=#A680B8;" parent="boM8Fp75N3sVBavPqf3y-1" vertex="1">
          <mxGeometry width="90" height="30" as="geometry" />
        </mxCell>
        <mxCell id="boM8Fp75N3sVBavPqf3y-3" value="Примечание" style="shape=partialRectangle;connectable=0;fillColor=none;top=0;left=0;bottom=0;right=0;align=left;spacingLeft=6;overflow=hidden;" parent="boM8Fp75N3sVBavPqf3y-1" vertex="1">
          <mxGeometry x="90" width="190" height="30" as="geometry" />
        </mxCell>
        <mxCell id="boM8Fp75N3sVBavPqf3y-4" value="Качественные характеристики партий - &#xa;ProductBatchQualityAttr" style="shape=table;startSize=30;container=1;collapsible=1;childLayout=tableLayout;fixedRows=1;rowLines=0;fontStyle=1;align=center;resizeLast=1;fontColor=#ffffff;fillColor=#6d8764;strokeColor=#97D077;" parent="1" vertex="1">
          <mxGeometry x="1120" y="1200" width="400" height="160" as="geometry" />
        </mxCell>
        <mxCell id="boM8Fp75N3sVBavPqf3y-5" value="" style="shape=partialRectangle;collapsible=0;dropTarget=0;pointerEvents=0;fillColor=none;top=0;left=0;bottom=1;right=0;points=[[0,0.5],[1,0.5]];portConstraint=eastwest;strokeColor=#97D077;" parent="boM8Fp75N3sVBavPqf3y-4" vertex="1">
          <mxGeometry y="30" width="400" height="30" as="geometry" />
        </mxCell>
        <mxCell id="boM8Fp75N3sVBavPqf3y-6" value="id" style="shape=partialRectangle;connectable=0;fillColor=none;top=0;left=0;bottom=0;right=0;fontStyle=1;overflow=hidden;fontColor=#EA6B66;" parent="boM8Fp75N3sVBavPqf3y-5" vertex="1">
          <mxGeometry width="90" height="30" as="geometry" />
        </mxCell>
        <mxCell id="boM8Fp75N3sVBavPqf3y-7" value="Идентификатор" style="shape=partialRectangle;connectable=0;fillColor=none;top=0;left=0;bottom=0;right=0;align=left;spacingLeft=6;fontStyle=5;overflow=hidden;" parent="boM8Fp75N3sVBavPqf3y-5" vertex="1">
          <mxGeometry x="90" width="310" height="30" as="geometry" />
        </mxCell>
        <mxCell id="boM8Fp75N3sVBavPqf3y-14" value="" style="shape=partialRectangle;collapsible=0;dropTarget=0;pointerEvents=0;fillColor=none;top=0;left=0;bottom=0;right=0;points=[[0,0.5],[1,0.5]];portConstraint=eastwest;fontColor=#EA6B66;strokeColor=#B5739D;" parent="boM8Fp75N3sVBavPqf3y-4" vertex="1">
          <mxGeometry y="60" width="400" height="30" as="geometry" />
        </mxCell>
        <mxCell id="boM8Fp75N3sVBavPqf3y-15" value="batch_id" style="shape=partialRectangle;connectable=0;fillColor=none;top=0;left=0;bottom=0;right=0;editable=1;overflow=hidden;fontColor=#EA6B66;" parent="boM8Fp75N3sVBavPqf3y-14" vertex="1">
          <mxGeometry width="90" height="30" as="geometry" />
        </mxCell>
        <mxCell id="boM8Fp75N3sVBavPqf3y-16" value="Идентификатор партии" style="shape=partialRectangle;connectable=0;fillColor=none;top=0;left=0;bottom=0;right=0;align=left;spacingLeft=6;overflow=hidden;" parent="boM8Fp75N3sVBavPqf3y-14" vertex="1">
          <mxGeometry x="90" width="310" height="30" as="geometry" />
        </mxCell>
        <mxCell id="boM8Fp75N3sVBavPqf3y-17" value="" style="shape=partialRectangle;collapsible=0;dropTarget=0;pointerEvents=0;fillColor=none;top=0;left=0;bottom=0;right=0;points=[[0,0.5],[1,0.5]];portConstraint=eastwest;fontColor=#EA6B66;strokeColor=#B5739D;" parent="boM8Fp75N3sVBavPqf3y-4" vertex="1">
          <mxGeometry y="90" width="400" height="30" as="geometry" />
        </mxCell>
        <mxCell id="boM8Fp75N3sVBavPqf3y-18" value="attr_id" style="shape=partialRectangle;connectable=0;fillColor=none;top=0;left=0;bottom=0;right=0;editable=1;overflow=hidden;fontColor=#EA6B66;" parent="boM8Fp75N3sVBavPqf3y-17" vertex="1">
          <mxGeometry width="90" height="30" as="geometry" />
        </mxCell>
        <mxCell id="boM8Fp75N3sVBavPqf3y-19" value="Идентификатор характеристики" style="shape=partialRectangle;connectable=0;fillColor=none;top=0;left=0;bottom=0;right=0;align=left;spacingLeft=6;overflow=hidden;" parent="boM8Fp75N3sVBavPqf3y-17" vertex="1">
          <mxGeometry x="90" width="310" height="30" as="geometry" />
        </mxCell>
        <mxCell id="boM8Fp75N3sVBavPqf3y-20" value="" style="shape=partialRectangle;collapsible=0;dropTarget=0;pointerEvents=0;fillColor=none;top=0;left=0;bottom=0;right=0;points=[[0,0.5],[1,0.5]];portConstraint=eastwest;fontColor=#EA6B66;strokeColor=#B5739D;" parent="boM8Fp75N3sVBavPqf3y-4" vertex="1">
          <mxGeometry y="120" width="400" height="30" as="geometry" />
        </mxCell>
        <mxCell id="boM8Fp75N3sVBavPqf3y-21" value="value" style="shape=partialRectangle;connectable=0;fillColor=none;top=0;left=0;bottom=0;right=0;editable=1;overflow=hidden;fontColor=#97D077;" parent="boM8Fp75N3sVBavPqf3y-20" vertex="1">
          <mxGeometry width="90" height="30" as="geometry" />
        </mxCell>
        <mxCell id="boM8Fp75N3sVBavPqf3y-22" value="Значение" style="shape=partialRectangle;connectable=0;fillColor=none;top=0;left=0;bottom=0;right=0;align=left;spacingLeft=6;overflow=hidden;" parent="boM8Fp75N3sVBavPqf3y-20" vertex="1">
          <mxGeometry x="90" width="310" height="30" as="geometry" />
        </mxCell>
        <mxCell id="boM8Fp75N3sVBavPqf3y-38" style="edgeStyle=orthogonalEdgeStyle;rounded=0;orthogonalLoop=1;jettySize=auto;html=1;exitX=1;exitY=0.5;exitDx=0;exitDy=0;entryX=0;entryY=0.5;entryDx=0;entryDy=0;fontColor=#EA6B66;strokeColor=#97D077;" parent="1" source="CA9-zons2UcCvZ7FdS-7-268" target="boM8Fp75N3sVBavPqf3y-14" edge="1">
          <mxGeometry relative="1" as="geometry" />
        </mxCell>
        <mxCell id="boM8Fp75N3sVBavPqf3y-39" value="Качественные характеристики НП - &#xa;QualityAttr" style="shape=table;startSize=30;container=1;collapsible=1;childLayout=tableLayout;fixedRows=1;rowLines=0;fontStyle=1;align=center;resizeLast=1;fontColor=#ffffff;fillColor=#6d8764;strokeColor=#97D077;" parent="1" vertex="1">
          <mxGeometry x="1600" y="1000" width="280" height="240" as="geometry" />
        </mxCell>
        <mxCell id="boM8Fp75N3sVBavPqf3y-40" value="" style="shape=partialRectangle;collapsible=0;dropTarget=0;pointerEvents=0;fillColor=none;top=0;left=0;bottom=1;right=0;points=[[0,0.5],[1,0.5]];portConstraint=eastwest;strokeColor=#97D077;" parent="boM8Fp75N3sVBavPqf3y-39" vertex="1">
          <mxGeometry y="30" width="280" height="30" as="geometry" />
        </mxCell>
        <mxCell id="boM8Fp75N3sVBavPqf3y-41" value="id" style="shape=partialRectangle;connectable=0;fillColor=none;top=0;left=0;bottom=0;right=0;fontStyle=1;overflow=hidden;fontColor=#EA6B66;" parent="boM8Fp75N3sVBavPqf3y-40" vertex="1">
          <mxGeometry width="120" height="30" as="geometry" />
        </mxCell>
        <mxCell id="boM8Fp75N3sVBavPqf3y-42" value="Идентификатор" style="shape=partialRectangle;connectable=0;fillColor=none;top=0;left=0;bottom=0;right=0;align=left;spacingLeft=6;fontStyle=5;overflow=hidden;" parent="boM8Fp75N3sVBavPqf3y-40" vertex="1">
          <mxGeometry x="120" width="160" height="30" as="geometry" />
        </mxCell>
        <mxCell id="boM8Fp75N3sVBavPqf3y-43" value="" style="shape=partialRectangle;collapsible=0;dropTarget=0;pointerEvents=0;fillColor=none;top=0;left=0;bottom=0;right=0;points=[[0,0.5],[1,0.5]];portConstraint=eastwest;fontColor=#EA6B66;strokeColor=#B5739D;" parent="boM8Fp75N3sVBavPqf3y-39" vertex="1">
          <mxGeometry y="60" width="280" height="30" as="geometry" />
        </mxCell>
        <mxCell id="boM8Fp75N3sVBavPqf3y-44" value="product_name" style="shape=partialRectangle;connectable=0;fillColor=none;top=0;left=0;bottom=0;right=0;editable=1;overflow=hidden;fontColor=#A680B8;" parent="boM8Fp75N3sVBavPqf3y-43" vertex="1">
          <mxGeometry width="120" height="30" as="geometry" />
        </mxCell>
        <mxCell id="boM8Fp75N3sVBavPqf3y-45" value="Продукт" style="shape=partialRectangle;connectable=0;fillColor=none;top=0;left=0;bottom=0;right=0;align=left;spacingLeft=6;overflow=hidden;" parent="boM8Fp75N3sVBavPqf3y-43" vertex="1">
          <mxGeometry x="120" width="160" height="30" as="geometry" />
        </mxCell>
        <mxCell id="boM8Fp75N3sVBavPqf3y-46" value="" style="shape=partialRectangle;collapsible=0;dropTarget=0;pointerEvents=0;fillColor=none;top=0;left=0;bottom=0;right=0;points=[[0,0.5],[1,0.5]];portConstraint=eastwest;fontColor=#EA6B66;strokeColor=#B5739D;" parent="boM8Fp75N3sVBavPqf3y-39" vertex="1">
          <mxGeometry y="90" width="280" height="30" as="geometry" />
        </mxCell>
        <mxCell id="boM8Fp75N3sVBavPqf3y-47" value="name" style="shape=partialRectangle;connectable=0;fillColor=none;top=0;left=0;bottom=0;right=0;editable=1;overflow=hidden;fontColor=#A680B8;" parent="boM8Fp75N3sVBavPqf3y-46" vertex="1">
          <mxGeometry width="120" height="30" as="geometry" />
        </mxCell>
        <mxCell id="boM8Fp75N3sVBavPqf3y-48" value="Наименование &#xa;характеристики" style="shape=partialRectangle;connectable=0;fillColor=none;top=0;left=0;bottom=0;right=0;align=left;spacingLeft=6;overflow=hidden;" parent="boM8Fp75N3sVBavPqf3y-46" vertex="1">
          <mxGeometry x="120" width="160" height="30" as="geometry" />
        </mxCell>
        <mxCell id="boM8Fp75N3sVBavPqf3y-61" value="" style="shape=partialRectangle;collapsible=0;dropTarget=0;pointerEvents=0;fillColor=none;top=0;left=0;bottom=0;right=0;points=[[0,0.5],[1,0.5]];portConstraint=eastwest;fontColor=#A680B8;strokeColor=#A680B8;" parent="boM8Fp75N3sVBavPqf3y-39" vertex="1">
          <mxGeometry y="120" width="280" height="30" as="geometry" />
        </mxCell>
        <mxCell id="boM8Fp75N3sVBavPqf3y-62" value="critical_upper_bound" style="shape=partialRectangle;connectable=0;fillColor=none;top=0;left=0;bottom=0;right=0;editable=1;overflow=hidden;fontColor=#97D077;" parent="boM8Fp75N3sVBavPqf3y-61" vertex="1">
          <mxGeometry width="120" height="30" as="geometry" />
        </mxCell>
        <mxCell id="boM8Fp75N3sVBavPqf3y-63" value="Верхняя критическая &#xa;граница" style="shape=partialRectangle;connectable=0;fillColor=none;top=0;left=0;bottom=0;right=0;align=left;spacingLeft=6;overflow=hidden;" parent="boM8Fp75N3sVBavPqf3y-61" vertex="1">
          <mxGeometry x="120" width="160" height="30" as="geometry" />
        </mxCell>
        <mxCell id="boM8Fp75N3sVBavPqf3y-64" value="" style="shape=partialRectangle;collapsible=0;dropTarget=0;pointerEvents=0;fillColor=none;top=0;left=0;bottom=0;right=0;points=[[0,0.5],[1,0.5]];portConstraint=eastwest;fontColor=#A680B8;strokeColor=#A680B8;" parent="boM8Fp75N3sVBavPqf3y-39" vertex="1">
          <mxGeometry y="150" width="280" height="30" as="geometry" />
        </mxCell>
        <mxCell id="boM8Fp75N3sVBavPqf3y-65" value="recommended_&#xa;upper_bound" style="shape=partialRectangle;connectable=0;fillColor=none;top=0;left=0;bottom=0;right=0;editable=1;overflow=hidden;fontColor=#97D077;" parent="boM8Fp75N3sVBavPqf3y-64" vertex="1">
          <mxGeometry width="120" height="30" as="geometry" />
        </mxCell>
        <mxCell id="boM8Fp75N3sVBavPqf3y-66" value="Верхняя рекомендуемая&#xa;граница" style="shape=partialRectangle;connectable=0;fillColor=none;top=0;left=0;bottom=0;right=0;align=left;spacingLeft=6;overflow=hidden;" parent="boM8Fp75N3sVBavPqf3y-64" vertex="1">
          <mxGeometry x="120" width="160" height="30" as="geometry" />
        </mxCell>
        <mxCell id="boM8Fp75N3sVBavPqf3y-67" value="" style="shape=partialRectangle;collapsible=0;dropTarget=0;pointerEvents=0;fillColor=none;top=0;left=0;bottom=0;right=0;points=[[0,0.5],[1,0.5]];portConstraint=eastwest;fontColor=#A680B8;strokeColor=#A680B8;" parent="boM8Fp75N3sVBavPqf3y-39" vertex="1">
          <mxGeometry y="180" width="280" height="30" as="geometry" />
        </mxCell>
        <mxCell id="boM8Fp75N3sVBavPqf3y-68" value="recommended_&#xa;lower_bound" style="shape=partialRectangle;connectable=0;fillColor=none;top=0;left=0;bottom=0;right=0;editable=1;overflow=hidden;fontColor=#97D077;" parent="boM8Fp75N3sVBavPqf3y-67" vertex="1">
          <mxGeometry width="120" height="30" as="geometry" />
        </mxCell>
        <mxCell id="boM8Fp75N3sVBavPqf3y-69" value="Нижняя рекомендуемая &#xa;граница" style="shape=partialRectangle;connectable=0;fillColor=none;top=0;left=0;bottom=0;right=0;align=left;spacingLeft=6;overflow=hidden;" parent="boM8Fp75N3sVBavPqf3y-67" vertex="1">
          <mxGeometry x="120" width="160" height="30" as="geometry" />
        </mxCell>
        <mxCell id="boM8Fp75N3sVBavPqf3y-70" value="" style="shape=partialRectangle;collapsible=0;dropTarget=0;pointerEvents=0;fillColor=none;top=0;left=0;bottom=0;right=0;points=[[0,0.5],[1,0.5]];portConstraint=eastwest;fontColor=#A680B8;strokeColor=#A680B8;" parent="boM8Fp75N3sVBavPqf3y-39" vertex="1">
          <mxGeometry y="210" width="280" height="30" as="geometry" />
        </mxCell>
        <mxCell id="boM8Fp75N3sVBavPqf3y-71" value="critical_lower_bound" style="shape=partialRectangle;connectable=0;fillColor=none;top=0;left=0;bottom=0;right=0;editable=1;overflow=hidden;fontColor=#97D077;" parent="boM8Fp75N3sVBavPqf3y-70" vertex="1">
          <mxGeometry width="120" height="30" as="geometry" />
        </mxCell>
        <mxCell id="boM8Fp75N3sVBavPqf3y-72" value="Нижняя критическая &#xa;граница" style="shape=partialRectangle;connectable=0;fillColor=none;top=0;left=0;bottom=0;right=0;align=left;spacingLeft=6;overflow=hidden;" parent="boM8Fp75N3sVBavPqf3y-70" vertex="1">
          <mxGeometry x="120" width="160" height="30" as="geometry" />
        </mxCell>
        <mxCell id="boM8Fp75N3sVBavPqf3y-73" style="edgeStyle=orthogonalEdgeStyle;rounded=0;orthogonalLoop=1;jettySize=auto;html=1;exitX=0;exitY=0.5;exitDx=0;exitDy=0;entryX=1;entryY=0.5;entryDx=0;entryDy=0;fontColor=#A680B8;fillColor=#6d8764;strokeColor=#97D077;" parent="1" source="boM8Fp75N3sVBavPqf3y-40" target="boM8Fp75N3sVBavPqf3y-17" edge="1">
          <mxGeometry relative="1" as="geometry">
            <Array as="points">
              <mxPoint x="1560" y="1045" />
              <mxPoint x="1560" y="1305" />
            </Array>
          </mxGeometry>
        </mxCell>
        <mxCell id="OKTao6-8tQ2HSba5QrjD-50" style="edgeStyle=orthogonalEdgeStyle;rounded=0;orthogonalLoop=1;jettySize=auto;html=1;exitX=0.5;exitY=1;exitDx=0;exitDy=0;fontColor=#EA6B66;dashed=1;entryX=0.5;entryY=0;entryDx=0;entryDy=0;" parent="1" source="boM8Fp75N3sVBavPqf3y-74" target="boM8Fp75N3sVBavPqf3y-39" edge="1">
          <mxGeometry relative="1" as="geometry">
            <mxPoint x="1850" y="980" as="targetPoint" />
            <Array as="points">
              <mxPoint x="1740" y="960" />
              <mxPoint x="1740" y="960" />
            </Array>
          </mxGeometry>
        </mxCell>
        <mxCell id="boM8Fp75N3sVBavPqf3y-74" value="Качественные характеристики НП - &#xa;ProductQualityAttr" style="shape=table;startSize=30;container=1;collapsible=1;childLayout=tableLayout;fixedRows=1;rowLines=0;fontStyle=1;align=center;resizeLast=1;fontColor=#000000;strokeColor=#B09500;fillColor=#e3c800;" parent="1" vertex="1">
          <mxGeometry x="1600" y="450" width="280" height="400" as="geometry" />
        </mxCell>
        <mxCell id="boM8Fp75N3sVBavPqf3y-75" value="" style="shape=partialRectangle;collapsible=0;dropTarget=0;pointerEvents=0;fillColor=none;top=0;left=0;bottom=1;right=0;points=[[0,0.5],[1,0.5]];portConstraint=eastwest;strokeColor=#FFD966;" parent="boM8Fp75N3sVBavPqf3y-74" vertex="1">
          <mxGeometry y="30" width="280" height="30" as="geometry" />
        </mxCell>
        <mxCell id="boM8Fp75N3sVBavPqf3y-76" value="id" style="shape=partialRectangle;connectable=0;fillColor=none;top=0;left=0;bottom=0;right=0;fontStyle=1;overflow=hidden;fontColor=#EA6B66;" parent="boM8Fp75N3sVBavPqf3y-75" vertex="1">
          <mxGeometry width="110" height="30" as="geometry" />
        </mxCell>
        <mxCell id="boM8Fp75N3sVBavPqf3y-77" value="Идентификатор" style="shape=partialRectangle;connectable=0;fillColor=none;top=0;left=0;bottom=0;right=0;align=left;spacingLeft=6;fontStyle=5;overflow=hidden;" parent="boM8Fp75N3sVBavPqf3y-75" vertex="1">
          <mxGeometry x="110" width="170" height="30" as="geometry" />
        </mxCell>
        <mxCell id="boM8Fp75N3sVBavPqf3y-78" value="" style="shape=partialRectangle;collapsible=0;dropTarget=0;pointerEvents=0;fillColor=none;top=0;left=0;bottom=0;right=0;points=[[0,0.5],[1,0.5]];portConstraint=eastwest;fontColor=#EA6B66;strokeColor=#B5739D;" parent="boM8Fp75N3sVBavPqf3y-74" vertex="1">
          <mxGeometry y="60" width="280" height="30" as="geometry" />
        </mxCell>
        <mxCell id="boM8Fp75N3sVBavPqf3y-79" value="product_name" style="shape=partialRectangle;connectable=0;fillColor=none;top=0;left=0;bottom=0;right=0;editable=1;overflow=hidden;fontColor=#A680B8;" parent="boM8Fp75N3sVBavPqf3y-78" vertex="1">
          <mxGeometry width="110" height="30" as="geometry" />
        </mxCell>
        <mxCell id="boM8Fp75N3sVBavPqf3y-80" value="Продукт" style="shape=partialRectangle;connectable=0;fillColor=none;top=0;left=0;bottom=0;right=0;align=left;spacingLeft=6;overflow=hidden;" parent="boM8Fp75N3sVBavPqf3y-78" vertex="1">
          <mxGeometry x="110" width="170" height="30" as="geometry" />
        </mxCell>
        <mxCell id="boM8Fp75N3sVBavPqf3y-81" value="" style="shape=partialRectangle;collapsible=0;dropTarget=0;pointerEvents=0;fillColor=none;top=0;left=0;bottom=0;right=0;points=[[0,0.5],[1,0.5]];portConstraint=eastwest;fontColor=#EA6B66;strokeColor=#B5739D;" parent="boM8Fp75N3sVBavPqf3y-74" vertex="1">
          <mxGeometry y="90" width="280" height="30" as="geometry" />
        </mxCell>
        <mxCell id="boM8Fp75N3sVBavPqf3y-82" value="name" style="shape=partialRectangle;connectable=0;fillColor=none;top=0;left=0;bottom=0;right=0;editable=1;overflow=hidden;fontColor=#A680B8;" parent="boM8Fp75N3sVBavPqf3y-81" vertex="1">
          <mxGeometry width="110" height="30" as="geometry" />
        </mxCell>
        <mxCell id="boM8Fp75N3sVBavPqf3y-83" value="Наименование &#xa;характеристики" style="shape=partialRectangle;connectable=0;fillColor=none;top=0;left=0;bottom=0;right=0;align=left;spacingLeft=6;overflow=hidden;" parent="boM8Fp75N3sVBavPqf3y-81" vertex="1">
          <mxGeometry x="110" width="170" height="30" as="geometry" />
        </mxCell>
        <mxCell id="boM8Fp75N3sVBavPqf3y-84" value="" style="shape=partialRectangle;collapsible=0;dropTarget=0;pointerEvents=0;fillColor=none;top=0;left=0;bottom=0;right=0;points=[[0,0.5],[1,0.5]];portConstraint=eastwest;fontColor=#EA6B66;strokeColor=#B5739D;" parent="boM8Fp75N3sVBavPqf3y-74" vertex="1">
          <mxGeometry y="120" width="280" height="30" as="geometry" />
        </mxCell>
        <mxCell id="boM8Fp75N3sVBavPqf3y-85" value="yanos_alias" style="shape=partialRectangle;connectable=0;fillColor=none;top=0;left=0;bottom=0;right=0;editable=1;overflow=hidden;fontColor=#A680B8;" parent="boM8Fp75N3sVBavPqf3y-84" vertex="1">
          <mxGeometry width="110" height="30" as="geometry" />
        </mxCell>
        <mxCell id="boM8Fp75N3sVBavPqf3y-86" value="Алиас характеристики в &#xa;ЯНОС" style="shape=partialRectangle;connectable=0;fillColor=none;top=0;left=0;bottom=0;right=0;align=left;spacingLeft=6;overflow=hidden;" parent="boM8Fp75N3sVBavPqf3y-84" vertex="1">
          <mxGeometry x="110" width="170" height="30" as="geometry" />
        </mxCell>
        <mxCell id="boM8Fp75N3sVBavPqf3y-87" value="" style="shape=partialRectangle;collapsible=0;dropTarget=0;pointerEvents=0;fillColor=none;top=0;left=0;bottom=0;right=0;points=[[0,0.5],[1,0.5]];portConstraint=eastwest;fontColor=#A680B8;strokeColor=#A680B8;" parent="boM8Fp75N3sVBavPqf3y-74" vertex="1">
          <mxGeometry y="150" width="280" height="30" as="geometry" />
        </mxCell>
        <mxCell id="boM8Fp75N3sVBavPqf3y-88" value="mnpz_alias" style="shape=partialRectangle;connectable=0;fillColor=none;top=0;left=0;bottom=0;right=0;editable=1;overflow=hidden;fontColor=#A680B8;" parent="boM8Fp75N3sVBavPqf3y-87" vertex="1">
          <mxGeometry width="110" height="30" as="geometry" />
        </mxCell>
        <mxCell id="boM8Fp75N3sVBavPqf3y-89" value="Алиас характеристики в &#xa;МНПЗ" style="shape=partialRectangle;connectable=0;fillColor=none;top=0;left=0;bottom=0;right=0;align=left;spacingLeft=6;overflow=hidden;" parent="boM8Fp75N3sVBavPqf3y-87" vertex="1">
          <mxGeometry x="110" width="170" height="30" as="geometry" />
        </mxCell>
        <mxCell id="boM8Fp75N3sVBavPqf3y-90" value="" style="shape=partialRectangle;collapsible=0;dropTarget=0;pointerEvents=0;fillColor=none;top=0;left=0;bottom=0;right=0;points=[[0,0.5],[1,0.5]];portConstraint=eastwest;fontColor=#A680B8;strokeColor=#A680B8;" parent="boM8Fp75N3sVBavPqf3y-74" vertex="1">
          <mxGeometry y="180" width="280" height="30" as="geometry" />
        </mxCell>
        <mxCell id="boM8Fp75N3sVBavPqf3y-91" value="onpz_alias" style="shape=partialRectangle;connectable=0;fillColor=none;top=0;left=0;bottom=0;right=0;editable=1;overflow=hidden;fontColor=#A680B8;" parent="boM8Fp75N3sVBavPqf3y-90" vertex="1">
          <mxGeometry width="110" height="30" as="geometry" />
        </mxCell>
        <mxCell id="boM8Fp75N3sVBavPqf3y-92" value="Алиас хараткеристики в &#xa;ОНПЗ" style="shape=partialRectangle;connectable=0;fillColor=none;top=0;left=0;bottom=0;right=0;align=left;spacingLeft=6;overflow=hidden;" parent="boM8Fp75N3sVBavPqf3y-90" vertex="1">
          <mxGeometry x="110" width="170" height="30" as="geometry" />
        </mxCell>
        <mxCell id="boM8Fp75N3sVBavPqf3y-93" value="" style="shape=partialRectangle;collapsible=0;dropTarget=0;pointerEvents=0;fillColor=none;top=0;left=0;bottom=0;right=0;points=[[0,0.5],[1,0.5]];portConstraint=eastwest;fontColor=#A680B8;strokeColor=#A680B8;" parent="boM8Fp75N3sVBavPqf3y-74" vertex="1">
          <mxGeometry y="210" width="280" height="30" as="geometry" />
        </mxCell>
        <mxCell id="boM8Fp75N3sVBavPqf3y-94" value="critical_upper_bound" style="shape=partialRectangle;connectable=0;fillColor=none;top=0;left=0;bottom=0;right=0;editable=1;overflow=hidden;fontColor=#97D077;" parent="boM8Fp75N3sVBavPqf3y-93" vertex="1">
          <mxGeometry width="110" height="30" as="geometry" />
        </mxCell>
        <mxCell id="boM8Fp75N3sVBavPqf3y-95" value="Верхняя критическая &#xa;граница" style="shape=partialRectangle;connectable=0;fillColor=none;top=0;left=0;bottom=0;right=0;align=left;spacingLeft=6;overflow=hidden;" parent="boM8Fp75N3sVBavPqf3y-93" vertex="1">
          <mxGeometry x="110" width="170" height="30" as="geometry" />
        </mxCell>
        <mxCell id="boM8Fp75N3sVBavPqf3y-96" value="" style="shape=partialRectangle;collapsible=0;dropTarget=0;pointerEvents=0;fillColor=none;top=0;left=0;bottom=0;right=0;points=[[0,0.5],[1,0.5]];portConstraint=eastwest;fontColor=#A680B8;strokeColor=#A680B8;" parent="boM8Fp75N3sVBavPqf3y-74" vertex="1">
          <mxGeometry y="240" width="280" height="30" as="geometry" />
        </mxCell>
        <mxCell id="boM8Fp75N3sVBavPqf3y-97" value="warning_&#xa;upper_bound" style="shape=partialRectangle;connectable=0;fillColor=none;top=0;left=0;bottom=0;right=0;editable=1;overflow=hidden;fontColor=#97D077;" parent="boM8Fp75N3sVBavPqf3y-96" vertex="1">
          <mxGeometry width="110" height="30" as="geometry" />
        </mxCell>
        <mxCell id="boM8Fp75N3sVBavPqf3y-98" value="Верхняя предупредительная&#xa;граница" style="shape=partialRectangle;connectable=0;fillColor=none;top=0;left=0;bottom=0;right=0;align=left;spacingLeft=6;overflow=hidden;" parent="boM8Fp75N3sVBavPqf3y-96" vertex="1">
          <mxGeometry x="110" width="170" height="30" as="geometry" />
        </mxCell>
        <mxCell id="boM8Fp75N3sVBavPqf3y-99" value="" style="shape=partialRectangle;collapsible=0;dropTarget=0;pointerEvents=0;fillColor=none;top=0;left=0;bottom=0;right=0;points=[[0,0.5],[1,0.5]];portConstraint=eastwest;fontColor=#A680B8;strokeColor=#A680B8;" parent="boM8Fp75N3sVBavPqf3y-74" vertex="1">
          <mxGeometry y="270" width="280" height="30" as="geometry" />
        </mxCell>
        <mxCell id="boM8Fp75N3sVBavPqf3y-100" value="warning_&#xa;lower_bound" style="shape=partialRectangle;connectable=0;fillColor=none;top=0;left=0;bottom=0;right=0;editable=1;overflow=hidden;fontColor=#97D077;" parent="boM8Fp75N3sVBavPqf3y-99" vertex="1">
          <mxGeometry width="110" height="30" as="geometry" />
        </mxCell>
        <mxCell id="boM8Fp75N3sVBavPqf3y-101" value="Нижняя предупредительная&#xa;граница" style="shape=partialRectangle;connectable=0;fillColor=none;top=0;left=0;bottom=0;right=0;align=left;spacingLeft=6;overflow=hidden;" parent="boM8Fp75N3sVBavPqf3y-99" vertex="1">
          <mxGeometry x="110" width="170" height="30" as="geometry" />
        </mxCell>
        <mxCell id="boM8Fp75N3sVBavPqf3y-102" value="" style="shape=partialRectangle;collapsible=0;dropTarget=0;pointerEvents=0;fillColor=none;top=0;left=0;bottom=0;right=0;points=[[0,0.5],[1,0.5]];portConstraint=eastwest;fontColor=#A680B8;strokeColor=#A680B8;" parent="boM8Fp75N3sVBavPqf3y-74" vertex="1">
          <mxGeometry y="300" width="280" height="30" as="geometry" />
        </mxCell>
        <mxCell id="boM8Fp75N3sVBavPqf3y-103" value="critical_lower_bound" style="shape=partialRectangle;connectable=0;fillColor=none;top=0;left=0;bottom=0;right=0;editable=1;overflow=hidden;fontColor=#97D077;" parent="boM8Fp75N3sVBavPqf3y-102" vertex="1">
          <mxGeometry width="110" height="30" as="geometry" />
        </mxCell>
        <mxCell id="boM8Fp75N3sVBavPqf3y-104" value="Нижняя критическая &#xa;граница" style="shape=partialRectangle;connectable=0;fillColor=none;top=0;left=0;bottom=0;right=0;align=left;spacingLeft=6;overflow=hidden;" parent="boM8Fp75N3sVBavPqf3y-102" vertex="1">
          <mxGeometry x="110" width="170" height="30" as="geometry" />
        </mxCell>
        <mxCell id="OKTao6-8tQ2HSba5QrjD-36" value="" style="shape=partialRectangle;collapsible=0;dropTarget=0;pointerEvents=0;fillColor=none;top=0;left=0;bottom=0;right=0;points=[[0,0.5],[1,0.5]];portConstraint=eastwest;" parent="boM8Fp75N3sVBavPqf3y-74" vertex="1">
          <mxGeometry y="330" width="280" height="30" as="geometry" />
        </mxCell>
        <mxCell id="OKTao6-8tQ2HSba5QrjD-37" value="gost_upper_bound" style="shape=partialRectangle;connectable=0;fillColor=none;top=0;left=0;bottom=0;right=0;editable=1;overflow=hidden;fontColor=#97D077;" parent="OKTao6-8tQ2HSba5QrjD-36" vertex="1">
          <mxGeometry width="110" height="30" as="geometry" />
        </mxCell>
        <mxCell id="OKTao6-8tQ2HSba5QrjD-38" value="Верхняя граница по ГОСТ" style="shape=partialRectangle;connectable=0;fillColor=none;top=0;left=0;bottom=0;right=0;align=left;spacingLeft=6;overflow=hidden;" parent="OKTao6-8tQ2HSba5QrjD-36" vertex="1">
          <mxGeometry x="110" width="170" height="30" as="geometry" />
        </mxCell>
        <mxCell id="OKTao6-8tQ2HSba5QrjD-39" value="" style="shape=partialRectangle;collapsible=0;dropTarget=0;pointerEvents=0;fillColor=none;top=0;left=0;bottom=0;right=0;points=[[0,0.5],[1,0.5]];portConstraint=eastwest;" parent="boM8Fp75N3sVBavPqf3y-74" vertex="1">
          <mxGeometry y="360" width="280" height="30" as="geometry" />
        </mxCell>
        <mxCell id="OKTao6-8tQ2HSba5QrjD-40" value="gost_lower_bound" style="shape=partialRectangle;connectable=0;fillColor=none;top=0;left=0;bottom=0;right=0;editable=1;overflow=hidden;fontColor=#97D077;" parent="OKTao6-8tQ2HSba5QrjD-39" vertex="1">
          <mxGeometry width="110" height="30" as="geometry" />
        </mxCell>
        <mxCell id="OKTao6-8tQ2HSba5QrjD-41" value="Нижняя граница по ГОСТ" style="shape=partialRectangle;connectable=0;fillColor=none;top=0;left=0;bottom=0;right=0;align=left;spacingLeft=6;overflow=hidden;" parent="OKTao6-8tQ2HSba5QrjD-39" vertex="1">
          <mxGeometry x="110" width="170" height="30" as="geometry" />
        </mxCell>
        <mxCell id="boM8Fp75N3sVBavPqf3y-105" value="Паспорта поставок - DeliveryPassport" style="shape=table;startSize=30;container=1;collapsible=1;childLayout=tableLayout;fixedRows=1;rowLines=0;fontStyle=1;align=center;resizeLast=1;fontColor=#ffffff;fillColor=#6d8764;strokeColor=#97D077;" parent="1" vertex="1">
          <mxGeometry x="210" y="1000" width="320" height="340" as="geometry" />
        </mxCell>
        <mxCell id="boM8Fp75N3sVBavPqf3y-106" value="" style="shape=partialRectangle;collapsible=0;dropTarget=0;pointerEvents=0;fillColor=none;top=0;left=0;bottom=1;right=0;points=[[0,0.5],[1,0.5]];portConstraint=eastwest;strokeColor=#97D077;" parent="boM8Fp75N3sVBavPqf3y-105" vertex="1">
          <mxGeometry y="30" width="320" height="30" as="geometry" />
        </mxCell>
        <mxCell id="boM8Fp75N3sVBavPqf3y-107" value="id" style="shape=partialRectangle;connectable=0;fillColor=none;top=0;left=0;bottom=0;right=0;fontStyle=1;overflow=hidden;fontColor=#EA6B66;" parent="boM8Fp75N3sVBavPqf3y-106" vertex="1">
          <mxGeometry width="130" height="30" as="geometry" />
        </mxCell>
        <mxCell id="boM8Fp75N3sVBavPqf3y-108" value="Идентификатор" style="shape=partialRectangle;connectable=0;fillColor=none;top=0;left=0;bottom=0;right=0;align=left;spacingLeft=6;fontStyle=5;overflow=hidden;" parent="boM8Fp75N3sVBavPqf3y-106" vertex="1">
          <mxGeometry x="130" width="190" height="30" as="geometry" />
        </mxCell>
        <mxCell id="boM8Fp75N3sVBavPqf3y-139" value="" style="shape=partialRectangle;collapsible=0;dropTarget=0;pointerEvents=0;fillColor=none;top=0;left=0;bottom=0;right=0;points=[[0,0.5],[1,0.5]];portConstraint=eastwest;fontColor=#97D077;strokeColor=#A680B8;" parent="boM8Fp75N3sVBavPqf3y-105" vertex="1">
          <mxGeometry y="60" width="320" height="30" as="geometry" />
        </mxCell>
        <mxCell id="boM8Fp75N3sVBavPqf3y-140" value="station_depart" style="shape=partialRectangle;connectable=0;fillColor=none;top=0;left=0;bottom=0;right=0;editable=1;overflow=hidden;fontColor=#A680B8;" parent="boM8Fp75N3sVBavPqf3y-139" vertex="1">
          <mxGeometry width="130" height="30" as="geometry" />
        </mxCell>
        <mxCell id="boM8Fp75N3sVBavPqf3y-141" value="Cтанция отправки" style="shape=partialRectangle;connectable=0;fillColor=none;top=0;left=0;bottom=0;right=0;align=left;spacingLeft=6;overflow=hidden;" parent="boM8Fp75N3sVBavPqf3y-139" vertex="1">
          <mxGeometry x="130" width="190" height="30" as="geometry" />
        </mxCell>
        <mxCell id="boM8Fp75N3sVBavPqf3y-112" value="" style="shape=partialRectangle;collapsible=0;dropTarget=0;pointerEvents=0;fillColor=none;top=0;left=0;bottom=0;right=0;points=[[0,0.5],[1,0.5]];portConstraint=eastwest;" parent="boM8Fp75N3sVBavPqf3y-105" vertex="1">
          <mxGeometry y="90" width="320" height="30" as="geometry" />
        </mxCell>
        <mxCell id="boM8Fp75N3sVBavPqf3y-113" value="product_name" style="shape=partialRectangle;connectable=0;fillColor=none;top=0;left=0;bottom=0;right=0;editable=1;overflow=hidden;fontColor=#A680B8;" parent="boM8Fp75N3sVBavPqf3y-112" vertex="1">
          <mxGeometry width="130" height="30" as="geometry" />
        </mxCell>
        <mxCell id="boM8Fp75N3sVBavPqf3y-114" value="Продукт" style="shape=partialRectangle;connectable=0;fillColor=none;top=0;left=0;bottom=0;right=0;align=left;spacingLeft=6;overflow=hidden;" parent="boM8Fp75N3sVBavPqf3y-112" vertex="1">
          <mxGeometry x="130" width="190" height="30" as="geometry" />
        </mxCell>
        <mxCell id="boM8Fp75N3sVBavPqf3y-115" value="" style="shape=partialRectangle;collapsible=0;dropTarget=0;pointerEvents=0;fillColor=none;top=0;left=0;bottom=0;right=0;points=[[0,0.5],[1,0.5]];portConstraint=eastwest;fontColor=#EA6B66;strokeColor=#B5739D;" parent="boM8Fp75N3sVBavPqf3y-105" vertex="1">
          <mxGeometry y="120" width="320" height="30" as="geometry" />
        </mxCell>
        <mxCell id="boM8Fp75N3sVBavPqf3y-116" value="station_destination" style="shape=partialRectangle;connectable=0;fillColor=none;top=0;left=0;bottom=0;right=0;editable=1;overflow=hidden;fontColor=#A680B8;" parent="boM8Fp75N3sVBavPqf3y-115" vertex="1">
          <mxGeometry width="130" height="30" as="geometry" />
        </mxCell>
        <mxCell id="boM8Fp75N3sVBavPqf3y-117" value="Станция прибытия" style="shape=partialRectangle;connectable=0;fillColor=none;top=0;left=0;bottom=0;right=0;align=left;spacingLeft=6;overflow=hidden;" parent="boM8Fp75N3sVBavPqf3y-115" vertex="1">
          <mxGeometry x="130" width="190" height="30" as="geometry" />
        </mxCell>
        <mxCell id="boM8Fp75N3sVBavPqf3y-118" value="" style="shape=partialRectangle;collapsible=0;dropTarget=0;pointerEvents=0;fillColor=none;top=0;left=0;bottom=0;right=0;points=[[0,0.5],[1,0.5]];portConstraint=eastwest;fontColor=#EA6B66;strokeColor=#B5739D;" parent="boM8Fp75N3sVBavPqf3y-105" vertex="1">
          <mxGeometry y="150" width="320" height="30" as="geometry" />
        </mxCell>
        <mxCell id="boM8Fp75N3sVBavPqf3y-119" value="date_depart" style="shape=partialRectangle;connectable=0;fillColor=none;top=0;left=0;bottom=0;right=0;editable=1;overflow=hidden;fontColor=#7EA6E0;" parent="boM8Fp75N3sVBavPqf3y-118" vertex="1">
          <mxGeometry width="130" height="30" as="geometry" />
        </mxCell>
        <mxCell id="boM8Fp75N3sVBavPqf3y-120" value="Дата отгрузки" style="shape=partialRectangle;connectable=0;fillColor=none;top=0;left=0;bottom=0;right=0;align=left;spacingLeft=6;overflow=hidden;" parent="boM8Fp75N3sVBavPqf3y-118" vertex="1">
          <mxGeometry x="130" width="190" height="30" as="geometry" />
        </mxCell>
        <mxCell id="boM8Fp75N3sVBavPqf3y-121" value="" style="shape=partialRectangle;collapsible=0;dropTarget=0;pointerEvents=0;fillColor=none;top=0;left=0;bottom=0;right=0;points=[[0,0.5],[1,0.5]];portConstraint=eastwest;fontColor=#EA6B66;strokeColor=#B5739D;" parent="boM8Fp75N3sVBavPqf3y-105" vertex="1">
          <mxGeometry y="180" width="320" height="30" as="geometry" />
        </mxCell>
        <mxCell id="boM8Fp75N3sVBavPqf3y-122" value="waybill" style="shape=partialRectangle;connectable=0;fillColor=none;top=0;left=0;bottom=0;right=0;editable=1;overflow=hidden;fontColor=#A680B8;" parent="boM8Fp75N3sVBavPqf3y-121" vertex="1">
          <mxGeometry width="130" height="30" as="geometry" />
        </mxCell>
        <mxCell id="boM8Fp75N3sVBavPqf3y-123" value="№ накладной" style="shape=partialRectangle;connectable=0;fillColor=none;top=0;left=0;bottom=0;right=0;align=left;spacingLeft=6;overflow=hidden;" parent="boM8Fp75N3sVBavPqf3y-121" vertex="1">
          <mxGeometry x="130" width="190" height="30" as="geometry" />
        </mxCell>
        <mxCell id="boM8Fp75N3sVBavPqf3y-124" value="" style="shape=partialRectangle;collapsible=0;dropTarget=0;pointerEvents=0;fillColor=none;top=0;left=0;bottom=0;right=0;points=[[0,0.5],[1,0.5]];portConstraint=eastwest;fontColor=#EA6B66;strokeColor=#B5739D;" parent="boM8Fp75N3sVBavPqf3y-105" vertex="1">
          <mxGeometry y="210" width="320" height="30" as="geometry" />
        </mxCell>
        <mxCell id="boM8Fp75N3sVBavPqf3y-125" value="parsed_passport" style="shape=partialRectangle;connectable=0;fillColor=none;top=0;left=0;bottom=0;right=0;editable=1;overflow=hidden;fontColor=#A680B8;" parent="boM8Fp75N3sVBavPqf3y-124" vertex="1">
          <mxGeometry width="130" height="30" as="geometry" />
        </mxCell>
        <mxCell id="boM8Fp75N3sVBavPqf3y-126" value="№ паспорта качества" style="shape=partialRectangle;connectable=0;fillColor=none;top=0;left=0;bottom=0;right=0;align=left;spacingLeft=6;overflow=hidden;" parent="boM8Fp75N3sVBavPqf3y-124" vertex="1">
          <mxGeometry x="130" width="190" height="30" as="geometry" />
        </mxCell>
        <mxCell id="boM8Fp75N3sVBavPqf3y-127" value="" style="shape=partialRectangle;collapsible=0;dropTarget=0;pointerEvents=0;fillColor=none;top=0;left=0;bottom=0;right=0;points=[[0,0.5],[1,0.5]];portConstraint=eastwest;fontColor=#EA6B66;strokeColor=#B5739D;" parent="boM8Fp75N3sVBavPqf3y-105" vertex="1">
          <mxGeometry y="240" width="320" height="30" as="geometry" />
        </mxCell>
        <mxCell id="boM8Fp75N3sVBavPqf3y-128" value="tank_name" style="shape=partialRectangle;connectable=0;fillColor=none;top=0;left=0;bottom=0;right=0;editable=1;overflow=hidden;fontColor=#A680B8;" parent="boM8Fp75N3sVBavPqf3y-127" vertex="1">
          <mxGeometry width="130" height="30" as="geometry" />
        </mxCell>
        <mxCell id="boM8Fp75N3sVBavPqf3y-129" value="№ резервуара" style="shape=partialRectangle;connectable=0;fillColor=none;top=0;left=0;bottom=0;right=0;align=left;spacingLeft=6;overflow=hidden;" parent="boM8Fp75N3sVBavPqf3y-127" vertex="1">
          <mxGeometry x="130" width="190" height="30" as="geometry" />
        </mxCell>
        <mxCell id="boM8Fp75N3sVBavPqf3y-133" value="" style="shape=partialRectangle;collapsible=0;dropTarget=0;pointerEvents=0;fillColor=none;top=0;left=0;bottom=0;right=0;points=[[0,0.5],[1,0.5]];portConstraint=eastwest;fontColor=#EA6B66;strokeColor=#B5739D;" parent="boM8Fp75N3sVBavPqf3y-105" vertex="1">
          <mxGeometry y="270" width="320" height="30" as="geometry" />
        </mxCell>
        <mxCell id="boM8Fp75N3sVBavPqf3y-134" value="total_mass_netto" style="shape=partialRectangle;connectable=0;fillColor=none;top=0;left=0;bottom=0;right=0;editable=1;overflow=hidden;fontColor=#97D077;" parent="boM8Fp75N3sVBavPqf3y-133" vertex="1">
          <mxGeometry width="130" height="30" as="geometry" />
        </mxCell>
        <mxCell id="boM8Fp75N3sVBavPqf3y-135" value="Вес продукта" style="shape=partialRectangle;connectable=0;fillColor=none;top=0;left=0;bottom=0;right=0;align=left;spacingLeft=6;overflow=hidden;" parent="boM8Fp75N3sVBavPqf3y-133" vertex="1">
          <mxGeometry x="130" width="190" height="30" as="geometry" />
        </mxCell>
        <mxCell id="boM8Fp75N3sVBavPqf3y-145" value="" style="shape=partialRectangle;collapsible=0;dropTarget=0;pointerEvents=0;fillColor=none;top=0;left=0;bottom=0;right=0;points=[[0,0.5],[1,0.5]];portConstraint=eastwest;fontColor=#97D077;strokeColor=#A680B8;" parent="boM8Fp75N3sVBavPqf3y-105" vertex="1">
          <mxGeometry y="300" width="320" height="30" as="geometry" />
        </mxCell>
        <mxCell id="boM8Fp75N3sVBavPqf3y-146" value="parsed_passport_date" style="shape=partialRectangle;connectable=0;fillColor=none;top=0;left=0;bottom=0;right=0;editable=1;overflow=hidden;fontColor=#7EA6E0;" parent="boM8Fp75N3sVBavPqf3y-145" vertex="1">
          <mxGeometry width="130" height="30" as="geometry" />
        </mxCell>
        <mxCell id="boM8Fp75N3sVBavPqf3y-147" value="Дата выдачи паспорта" style="shape=partialRectangle;connectable=0;fillColor=none;top=0;left=0;bottom=0;right=0;align=left;spacingLeft=6;overflow=hidden;" parent="boM8Fp75N3sVBavPqf3y-145" vertex="1">
          <mxGeometry x="130" width="190" height="30" as="geometry" />
        </mxCell>
        <mxCell id="boM8Fp75N3sVBavPqf3y-151" value="Качественные характеристики по паспортам &#xa;поставок - DeliveryPassportQualityAttr" style="shape=table;startSize=30;container=1;collapsible=1;childLayout=tableLayout;fixedRows=1;rowLines=0;fontStyle=1;align=center;resizeLast=1;fontColor=#ffffff;fillColor=#6d8764;strokeColor=#97D077;" parent="1" vertex="1">
          <mxGeometry x="1120" y="1000" width="400" height="120" as="geometry" />
        </mxCell>
        <mxCell id="boM8Fp75N3sVBavPqf3y-152" value="" style="shape=partialRectangle;collapsible=0;dropTarget=0;pointerEvents=0;fillColor=none;top=0;left=0;bottom=1;right=0;points=[[0,0.5],[1,0.5]];portConstraint=eastwest;strokeColor=#97D077;" parent="boM8Fp75N3sVBavPqf3y-151" vertex="1">
          <mxGeometry y="30" width="400" height="30" as="geometry" />
        </mxCell>
        <mxCell id="boM8Fp75N3sVBavPqf3y-153" value="id" style="shape=partialRectangle;connectable=0;fillColor=none;top=0;left=0;bottom=0;right=0;fontStyle=1;overflow=hidden;fontColor=#EA6B66;" parent="boM8Fp75N3sVBavPqf3y-152" vertex="1">
          <mxGeometry width="150.00000000000045" height="30" as="geometry" />
        </mxCell>
        <mxCell id="boM8Fp75N3sVBavPqf3y-154" value="Идентификатор" style="shape=partialRectangle;connectable=0;fillColor=none;top=0;left=0;bottom=0;right=0;align=left;spacingLeft=6;fontStyle=5;overflow=hidden;" parent="boM8Fp75N3sVBavPqf3y-152" vertex="1">
          <mxGeometry x="150.00000000000045" width="249.99999999999955" height="30" as="geometry" />
        </mxCell>
        <mxCell id="boM8Fp75N3sVBavPqf3y-158" value="" style="shape=partialRectangle;collapsible=0;dropTarget=0;pointerEvents=0;fillColor=none;top=0;left=0;bottom=0;right=0;points=[[0,0.5],[1,0.5]];portConstraint=eastwest;fontColor=#EA6B66;strokeColor=#B5739D;" parent="boM8Fp75N3sVBavPqf3y-151" vertex="1">
          <mxGeometry y="60" width="400" height="30" as="geometry" />
        </mxCell>
        <mxCell id="boM8Fp75N3sVBavPqf3y-159" value="attr_id" style="shape=partialRectangle;connectable=0;fillColor=none;top=0;left=0;bottom=0;right=0;editable=1;overflow=hidden;fontColor=#EA6B66;" parent="boM8Fp75N3sVBavPqf3y-158" vertex="1">
          <mxGeometry width="150.00000000000045" height="30" as="geometry" />
        </mxCell>
        <mxCell id="boM8Fp75N3sVBavPqf3y-160" value="Идентификатор характеристики" style="shape=partialRectangle;connectable=0;fillColor=none;top=0;left=0;bottom=0;right=0;align=left;spacingLeft=6;overflow=hidden;" parent="boM8Fp75N3sVBavPqf3y-158" vertex="1">
          <mxGeometry x="150.00000000000045" width="249.99999999999955" height="30" as="geometry" />
        </mxCell>
        <mxCell id="boM8Fp75N3sVBavPqf3y-161" value="" style="shape=partialRectangle;collapsible=0;dropTarget=0;pointerEvents=0;fillColor=none;top=0;left=0;bottom=0;right=0;points=[[0,0.5],[1,0.5]];portConstraint=eastwest;fontColor=#EA6B66;strokeColor=#B5739D;" parent="boM8Fp75N3sVBavPqf3y-151" vertex="1">
          <mxGeometry y="90" width="400" height="30" as="geometry" />
        </mxCell>
        <mxCell id="boM8Fp75N3sVBavPqf3y-162" value="value" style="shape=partialRectangle;connectable=0;fillColor=none;top=0;left=0;bottom=0;right=0;editable=1;overflow=hidden;fontColor=#97D077;" parent="boM8Fp75N3sVBavPqf3y-161" vertex="1">
          <mxGeometry width="150.00000000000045" height="30" as="geometry" />
        </mxCell>
        <mxCell id="boM8Fp75N3sVBavPqf3y-163" value="Значение" style="shape=partialRectangle;connectable=0;fillColor=none;top=0;left=0;bottom=0;right=0;align=left;spacingLeft=6;overflow=hidden;" parent="boM8Fp75N3sVBavPqf3y-161" vertex="1">
          <mxGeometry x="150.00000000000045" width="249.99999999999955" height="30" as="geometry" />
        </mxCell>
        <mxCell id="boM8Fp75N3sVBavPqf3y-165" style="edgeStyle=orthogonalEdgeStyle;rounded=0;orthogonalLoop=1;jettySize=auto;html=1;exitX=0;exitY=0.5;exitDx=0;exitDy=0;entryX=1;entryY=0.5;entryDx=0;entryDy=0;fontColor=#97D077;fillColor=#6d8764;strokeColor=#97D077;" parent="1" source="boM8Fp75N3sVBavPqf3y-40" target="boM8Fp75N3sVBavPqf3y-158" edge="1">
          <mxGeometry relative="1" as="geometry">
            <Array as="points">
              <mxPoint x="1550" y="1045" />
              <mxPoint x="1550" y="1075" />
            </Array>
          </mxGeometry>
        </mxCell>
        <mxCell id="OKTao6-8tQ2HSba5QrjD-49" style="edgeStyle=orthogonalEdgeStyle;rounded=0;orthogonalLoop=1;jettySize=auto;html=1;exitX=1;exitY=0.5;exitDx=0;exitDy=0;fontColor=#EA6B66;fillColor=#e3c800;strokeColor=#B09500;" parent="1" source="CA9-zons2UcCvZ7FdS-7-175" target="boM8Fp75N3sVBavPqf3y-75" edge="1">
          <mxGeometry relative="1" as="geometry" />
        </mxCell>
        <mxCell id="OKTao6-8tQ2HSba5QrjD-54" style="edgeStyle=orthogonalEdgeStyle;rounded=0;orthogonalLoop=1;jettySize=auto;html=1;exitX=0;exitY=0.5;exitDx=0;exitDy=0;dashed=1;fontColor=#EA6B66;entryX=0;entryY=0.5;entryDx=0;entryDy=0;dashPattern=1 2;endArrow=block;endFill=0;" parent="1" source="CA9-zons2UcCvZ7FdS-7-42" target="boM8Fp75N3sVBavPqf3y-118" edge="1">
          <mxGeometry relative="1" as="geometry">
            <Array as="points">
              <mxPoint x="120" y="195" />
              <mxPoint x="120" y="1165" />
            </Array>
          </mxGeometry>
        </mxCell>
        <mxCell id="OKTao6-8tQ2HSba5QrjD-55" style="edgeStyle=orthogonalEdgeStyle;rounded=0;orthogonalLoop=1;jettySize=auto;html=1;exitX=0;exitY=0.5;exitDx=0;exitDy=0;entryX=0;entryY=0.5;entryDx=0;entryDy=0;dashed=1;dashPattern=1 2;fontColor=#7EA6E0;startArrow=none;startFill=0;endArrow=block;endFill=0;" parent="1" source="CA9-zons2UcCvZ7FdS-7-45" target="boM8Fp75N3sVBavPqf3y-139" edge="1">
          <mxGeometry relative="1" as="geometry">
            <Array as="points">
              <mxPoint x="130" y="225" />
              <mxPoint x="130" y="1075" />
            </Array>
          </mxGeometry>
        </mxCell>
        <mxCell id="OKTao6-8tQ2HSba5QrjD-57" style="edgeStyle=orthogonalEdgeStyle;rounded=0;orthogonalLoop=1;jettySize=auto;html=1;exitX=0;exitY=0.5;exitDx=0;exitDy=0;entryX=0;entryY=0.5;entryDx=0;entryDy=0;dashed=1;dashPattern=1 2;fontColor=#7EA6E0;startArrow=none;startFill=0;endArrow=block;endFill=0;" parent="1" source="CA9-zons2UcCvZ7FdS-7-55" target="boM8Fp75N3sVBavPqf3y-115" edge="1">
          <mxGeometry relative="1" as="geometry">
            <Array as="points">
              <mxPoint x="140" y="315" />
              <mxPoint x="140" y="1135" />
            </Array>
          </mxGeometry>
        </mxCell>
        <mxCell id="OKTao6-8tQ2HSba5QrjD-58" style="edgeStyle=orthogonalEdgeStyle;rounded=0;orthogonalLoop=1;jettySize=auto;html=1;exitX=0;exitY=0.5;exitDx=0;exitDy=0;entryX=0;entryY=0.5;entryDx=0;entryDy=0;dashed=1;dashPattern=1 2;fontColor=#A680B8;startArrow=none;startFill=0;endArrow=block;endFill=0;" parent="1" source="CA9-zons2UcCvZ7FdS-7-39" target="boM8Fp75N3sVBavPqf3y-121" edge="1">
          <mxGeometry relative="1" as="geometry">
            <Array as="points">
              <mxPoint x="110" y="165" />
              <mxPoint x="110" y="1195" />
            </Array>
          </mxGeometry>
        </mxCell>
        <mxCell id="OKTao6-8tQ2HSba5QrjD-59" style="edgeStyle=orthogonalEdgeStyle;rounded=0;orthogonalLoop=1;jettySize=auto;html=1;exitX=0;exitY=0.5;exitDx=0;exitDy=0;entryX=0;entryY=0.5;entryDx=0;entryDy=0;dashed=1;dashPattern=1 2;fontColor=#A680B8;startArrow=none;startFill=0;endArrow=block;endFill=0;" parent="1" source="CA9-zons2UcCvZ7FdS-7-24" target="boM8Fp75N3sVBavPqf3y-124" edge="1">
          <mxGeometry relative="1" as="geometry">
            <Array as="points">
              <mxPoint x="100" y="105" />
              <mxPoint x="100" y="1225" />
            </Array>
          </mxGeometry>
        </mxCell>
        <mxCell id="OKTao6-8tQ2HSba5QrjD-70" value="Остатки в резервуарах - TankResidue" style="shape=table;startSize=30;container=1;collapsible=1;childLayout=tableLayout;fixedRows=1;rowLines=0;fontStyle=1;align=center;resizeLast=1;fontColor=#ffffff;fillColor=#6d8764;strokeColor=#97D077;" parent="1" vertex="1">
          <mxGeometry x="770" y="1880" width="280" height="150" as="geometry" />
        </mxCell>
        <mxCell id="OKTao6-8tQ2HSba5QrjD-71" value="" style="shape=partialRectangle;collapsible=0;dropTarget=0;pointerEvents=0;fillColor=none;top=0;left=0;bottom=1;right=0;points=[[0,0.5],[1,0.5]];portConstraint=eastwest;strokeColor=#97D077;" parent="OKTao6-8tQ2HSba5QrjD-70" vertex="1">
          <mxGeometry y="30" width="280" height="30" as="geometry" />
        </mxCell>
        <mxCell id="OKTao6-8tQ2HSba5QrjD-72" value="id" style="shape=partialRectangle;connectable=0;fillColor=none;top=0;left=0;bottom=0;right=0;fontStyle=1;overflow=hidden;fontColor=#EA6B66;" parent="OKTao6-8tQ2HSba5QrjD-71" vertex="1">
          <mxGeometry width="90" height="30" as="geometry" />
        </mxCell>
        <mxCell id="OKTao6-8tQ2HSba5QrjD-73" value="Идентификатор" style="shape=partialRectangle;connectable=0;fillColor=none;top=0;left=0;bottom=0;right=0;align=left;spacingLeft=6;fontStyle=5;overflow=hidden;" parent="OKTao6-8tQ2HSba5QrjD-71" vertex="1">
          <mxGeometry x="90" width="190" height="30" as="geometry" />
        </mxCell>
        <mxCell id="OKTao6-8tQ2HSba5QrjD-74" value="" style="shape=partialRectangle;collapsible=0;dropTarget=0;pointerEvents=0;fillColor=none;top=0;left=0;bottom=0;right=0;points=[[0,0.5],[1,0.5]];portConstraint=eastwest;fontColor=#EA6B66;strokeColor=#B5739D;" parent="OKTao6-8tQ2HSba5QrjD-70" vertex="1">
          <mxGeometry y="60" width="280" height="30" as="geometry" />
        </mxCell>
        <mxCell id="OKTao6-8tQ2HSba5QrjD-75" value="tank_id" style="shape=partialRectangle;connectable=0;fillColor=none;top=0;left=0;bottom=0;right=0;editable=1;overflow=hidden;fontColor=#EA6B66;" parent="OKTao6-8tQ2HSba5QrjD-74" vertex="1">
          <mxGeometry width="90" height="30" as="geometry" />
        </mxCell>
        <mxCell id="OKTao6-8tQ2HSba5QrjD-76" value="Идентификатор резервуара" style="shape=partialRectangle;connectable=0;fillColor=none;top=0;left=0;bottom=0;right=0;align=left;spacingLeft=6;overflow=hidden;" parent="OKTao6-8tQ2HSba5QrjD-74" vertex="1">
          <mxGeometry x="90" width="190" height="30" as="geometry" />
        </mxCell>
        <mxCell id="OKTao6-8tQ2HSba5QrjD-77" value="" style="shape=partialRectangle;collapsible=0;dropTarget=0;pointerEvents=0;fillColor=none;top=0;left=0;bottom=0;right=0;points=[[0,0.5],[1,0.5]];portConstraint=eastwest;fontColor=#EA6B66;strokeColor=#B5739D;" parent="OKTao6-8tQ2HSba5QrjD-70" vertex="1">
          <mxGeometry y="90" width="280" height="30" as="geometry" />
        </mxCell>
        <mxCell id="OKTao6-8tQ2HSba5QrjD-78" value="timestamp" style="shape=partialRectangle;connectable=0;fillColor=none;top=0;left=0;bottom=0;right=0;editable=1;overflow=hidden;fontColor=#67AB9F;" parent="OKTao6-8tQ2HSba5QrjD-77" vertex="1">
          <mxGeometry width="90" height="30" as="geometry" />
        </mxCell>
        <mxCell id="OKTao6-8tQ2HSba5QrjD-79" value="Остаток на" style="shape=partialRectangle;connectable=0;fillColor=none;top=0;left=0;bottom=0;right=0;align=left;spacingLeft=6;overflow=hidden;" parent="OKTao6-8tQ2HSba5QrjD-77" vertex="1">
          <mxGeometry x="90" width="190" height="30" as="geometry" />
        </mxCell>
        <mxCell id="OKTao6-8tQ2HSba5QrjD-80" value="" style="shape=partialRectangle;collapsible=0;dropTarget=0;pointerEvents=0;fillColor=none;top=0;left=0;bottom=0;right=0;points=[[0,0.5],[1,0.5]];portConstraint=eastwest;fontColor=#EA6B66;strokeColor=#B5739D;" parent="OKTao6-8tQ2HSba5QrjD-70" vertex="1">
          <mxGeometry y="120" width="280" height="30" as="geometry" />
        </mxCell>
        <mxCell id="OKTao6-8tQ2HSba5QrjD-81" value="value" style="shape=partialRectangle;connectable=0;fillColor=none;top=0;left=0;bottom=0;right=0;editable=1;overflow=hidden;fontColor=#97D077;" parent="OKTao6-8tQ2HSba5QrjD-80" vertex="1">
          <mxGeometry width="90" height="30" as="geometry" />
        </mxCell>
        <mxCell id="OKTao6-8tQ2HSba5QrjD-82" value="Значение" style="shape=partialRectangle;connectable=0;fillColor=none;top=0;left=0;bottom=0;right=0;align=left;spacingLeft=6;overflow=hidden;" parent="OKTao6-8tQ2HSba5QrjD-80" vertex="1">
          <mxGeometry x="90" width="190" height="30" as="geometry" />
        </mxCell>
        <mxCell id="OKTao6-8tQ2HSba5QrjD-83" value="Контрагенты" style="shape=table;startSize=30;container=1;collapsible=1;childLayout=tableLayout;fixedRows=1;rowLines=0;fontStyle=1;align=center;resizeLast=1;fontColor=#000000;strokeColor=#B09500;fillColor=#e3c800;" parent="1" vertex="1">
          <mxGeometry x="-520" y="350" width="280" height="100" as="geometry" />
        </mxCell>
        <mxCell id="OKTao6-8tQ2HSba5QrjD-84" value="" style="shape=partialRectangle;collapsible=0;dropTarget=0;pointerEvents=0;fillColor=none;top=0;left=0;bottom=1;right=0;points=[[0,0.5],[1,0.5]];portConstraint=eastwest;strokeColor=#FFD966;" parent="OKTao6-8tQ2HSba5QrjD-83" vertex="1">
          <mxGeometry y="30" width="280" height="30" as="geometry" />
        </mxCell>
        <mxCell id="OKTao6-8tQ2HSba5QrjD-85" value="id" style="shape=partialRectangle;connectable=0;fillColor=none;top=0;left=0;bottom=0;right=0;fontStyle=1;overflow=hidden;fontColor=#EA6B66;" parent="OKTao6-8tQ2HSba5QrjD-84" vertex="1">
          <mxGeometry width="110" height="30" as="geometry" />
        </mxCell>
        <mxCell id="OKTao6-8tQ2HSba5QrjD-86" value="Идентификатор" style="shape=partialRectangle;connectable=0;fillColor=none;top=0;left=0;bottom=0;right=0;align=left;spacingLeft=6;fontStyle=5;overflow=hidden;" parent="OKTao6-8tQ2HSba5QrjD-84" vertex="1">
          <mxGeometry x="110" width="170" height="30" as="geometry" />
        </mxCell>
        <mxCell id="OKTao6-8tQ2HSba5QrjD-87" value="" style="shape=partialRectangle;collapsible=0;dropTarget=0;pointerEvents=0;fillColor=none;top=0;left=0;bottom=0;right=0;points=[[0,0.5],[1,0.5]];portConstraint=eastwest;fontColor=#EA6B66;strokeColor=#B5739D;" parent="OKTao6-8tQ2HSba5QrjD-83" vertex="1">
          <mxGeometry y="60" width="280" height="30" as="geometry" />
        </mxCell>
        <mxCell id="OKTao6-8tQ2HSba5QrjD-88" value="name" style="shape=partialRectangle;connectable=0;fillColor=none;top=0;left=0;bottom=0;right=0;editable=1;overflow=hidden;fontColor=#A680B8;" parent="OKTao6-8tQ2HSba5QrjD-87" vertex="1">
          <mxGeometry width="110" height="30" as="geometry" />
        </mxCell>
        <mxCell id="OKTao6-8tQ2HSba5QrjD-89" value="Наименование" style="shape=partialRectangle;connectable=0;fillColor=none;top=0;left=0;bottom=0;right=0;align=left;spacingLeft=6;overflow=hidden;" parent="OKTao6-8tQ2HSba5QrjD-87" vertex="1">
          <mxGeometry x="110" width="170" height="30" as="geometry" />
        </mxCell>
        <mxCell id="OKTao6-8tQ2HSba5QrjD-120" value="Контрагенты" style="shape=table;startSize=30;container=1;collapsible=1;childLayout=tableLayout;fixedRows=1;rowLines=0;fontStyle=1;align=center;resizeLast=1;fontColor=#ffffff;fillColor=#6d8764;strokeColor=#97D077;" parent="1" vertex="1">
          <mxGeometry x="-520" y="1390" width="280" height="100" as="geometry" />
        </mxCell>
        <mxCell id="OKTao6-8tQ2HSba5QrjD-121" value="" style="shape=partialRectangle;collapsible=0;dropTarget=0;pointerEvents=0;fillColor=none;top=0;left=0;bottom=1;right=0;points=[[0,0.5],[1,0.5]];portConstraint=eastwest;strokeColor=#97D077;" parent="OKTao6-8tQ2HSba5QrjD-120" vertex="1">
          <mxGeometry y="30" width="280" height="30" as="geometry" />
        </mxCell>
        <mxCell id="OKTao6-8tQ2HSba5QrjD-122" value="id" style="shape=partialRectangle;connectable=0;fillColor=none;top=0;left=0;bottom=0;right=0;fontStyle=1;overflow=hidden;fontColor=#EA6B66;" parent="OKTao6-8tQ2HSba5QrjD-121" vertex="1">
          <mxGeometry width="110" height="30" as="geometry" />
        </mxCell>
        <mxCell id="OKTao6-8tQ2HSba5QrjD-123" value="Идентификатор" style="shape=partialRectangle;connectable=0;fillColor=none;top=0;left=0;bottom=0;right=0;align=left;spacingLeft=6;fontStyle=5;overflow=hidden;" parent="OKTao6-8tQ2HSba5QrjD-121" vertex="1">
          <mxGeometry x="110" width="170" height="30" as="geometry" />
        </mxCell>
        <mxCell id="OKTao6-8tQ2HSba5QrjD-124" value="" style="shape=partialRectangle;collapsible=0;dropTarget=0;pointerEvents=0;fillColor=none;top=0;left=0;bottom=0;right=0;points=[[0,0.5],[1,0.5]];portConstraint=eastwest;fontColor=#EA6B66;strokeColor=#B5739D;" parent="OKTao6-8tQ2HSba5QrjD-120" vertex="1">
          <mxGeometry y="60" width="280" height="30" as="geometry" />
        </mxCell>
        <mxCell id="OKTao6-8tQ2HSba5QrjD-125" value="name" style="shape=partialRectangle;connectable=0;fillColor=none;top=0;left=0;bottom=0;right=0;editable=1;overflow=hidden;fontColor=#A680B8;" parent="OKTao6-8tQ2HSba5QrjD-124" vertex="1">
          <mxGeometry width="110" height="30" as="geometry" />
        </mxCell>
        <mxCell id="OKTao6-8tQ2HSba5QrjD-126" value="Наименование" style="shape=partialRectangle;connectable=0;fillColor=none;top=0;left=0;bottom=0;right=0;align=left;spacingLeft=6;overflow=hidden;" parent="OKTao6-8tQ2HSba5QrjD-124" vertex="1">
          <mxGeometry x="110" width="170" height="30" as="geometry" />
        </mxCell>
        <mxCell id="OKTao6-8tQ2HSba5QrjD-127" style="edgeStyle=orthogonalEdgeStyle;rounded=0;orthogonalLoop=1;jettySize=auto;html=1;exitX=0.5;exitY=1;exitDx=0;exitDy=0;fontColor=#EA6B66;dashed=1;entryX=0.5;entryY=0;entryDx=0;entryDy=0;" parent="1" source="OKTao6-8tQ2HSba5QrjD-83" target="OKTao6-8tQ2HSba5QrjD-120" edge="1">
          <mxGeometry relative="1" as="geometry">
            <mxPoint x="-1020" y="440.0000000000002" as="sourcePoint" />
            <mxPoint x="-1020" y="1030" as="targetPoint" />
            <Array as="points">
              <mxPoint x="-380" y="1020" />
              <mxPoint x="-380" y="1020" />
            </Array>
          </mxGeometry>
        </mxCell>
        <mxCell id="OKTao6-8tQ2HSba5QrjD-128" value="Танкеры" style="shape=table;startSize=30;container=1;collapsible=1;childLayout=tableLayout;fixedRows=1;rowLines=0;fontStyle=1;align=center;resizeLast=1;fontColor=#000000;strokeColor=#B09500;fillColor=#e3c800;" parent="1" vertex="1">
          <mxGeometry x="-360" y="540" width="280" height="100" as="geometry" />
        </mxCell>
        <mxCell id="OKTao6-8tQ2HSba5QrjD-129" value="" style="shape=partialRectangle;collapsible=0;dropTarget=0;pointerEvents=0;fillColor=none;top=0;left=0;bottom=1;right=0;points=[[0,0.5],[1,0.5]];portConstraint=eastwest;strokeColor=#FFD966;" parent="OKTao6-8tQ2HSba5QrjD-128" vertex="1">
          <mxGeometry y="30" width="280" height="30" as="geometry" />
        </mxCell>
        <mxCell id="OKTao6-8tQ2HSba5QrjD-130" value="id" style="shape=partialRectangle;connectable=0;fillColor=none;top=0;left=0;bottom=0;right=0;fontStyle=1;overflow=hidden;fontColor=#EA6B66;" parent="OKTao6-8tQ2HSba5QrjD-129" vertex="1">
          <mxGeometry width="110" height="30" as="geometry" />
        </mxCell>
        <mxCell id="OKTao6-8tQ2HSba5QrjD-131" value="Идентификатор" style="shape=partialRectangle;connectable=0;fillColor=none;top=0;left=0;bottom=0;right=0;align=left;spacingLeft=6;fontStyle=5;overflow=hidden;" parent="OKTao6-8tQ2HSba5QrjD-129" vertex="1">
          <mxGeometry x="110" width="170" height="30" as="geometry" />
        </mxCell>
        <mxCell id="OKTao6-8tQ2HSba5QrjD-132" value="" style="shape=partialRectangle;collapsible=0;dropTarget=0;pointerEvents=0;fillColor=none;top=0;left=0;bottom=0;right=0;points=[[0,0.5],[1,0.5]];portConstraint=eastwest;fontColor=#EA6B66;strokeColor=#B5739D;" parent="OKTao6-8tQ2HSba5QrjD-128" vertex="1">
          <mxGeometry y="60" width="280" height="30" as="geometry" />
        </mxCell>
        <mxCell id="OKTao6-8tQ2HSba5QrjD-133" value="name" style="shape=partialRectangle;connectable=0;fillColor=none;top=0;left=0;bottom=0;right=0;editable=1;overflow=hidden;fontColor=#A680B8;" parent="OKTao6-8tQ2HSba5QrjD-132" vertex="1">
          <mxGeometry width="110" height="30" as="geometry" />
        </mxCell>
        <mxCell id="OKTao6-8tQ2HSba5QrjD-134" value="Наименование" style="shape=partialRectangle;connectable=0;fillColor=none;top=0;left=0;bottom=0;right=0;align=left;spacingLeft=6;overflow=hidden;" parent="OKTao6-8tQ2HSba5QrjD-132" vertex="1">
          <mxGeometry x="110" width="170" height="30" as="geometry" />
        </mxCell>
        <mxCell id="OKTao6-8tQ2HSba5QrjD-135" value="Танкеры" style="shape=table;startSize=30;container=1;collapsible=1;childLayout=tableLayout;fixedRows=1;rowLines=0;fontStyle=1;align=center;resizeLast=1;fontColor=#ffffff;fillColor=#6d8764;strokeColor=#97D077;" parent="1" vertex="1">
          <mxGeometry x="-360" y="1210" width="280" height="100" as="geometry" />
        </mxCell>
        <mxCell id="OKTao6-8tQ2HSba5QrjD-136" value="" style="shape=partialRectangle;collapsible=0;dropTarget=0;pointerEvents=0;fillColor=none;top=0;left=0;bottom=1;right=0;points=[[0,0.5],[1,0.5]];portConstraint=eastwest;strokeColor=#97D077;" parent="OKTao6-8tQ2HSba5QrjD-135" vertex="1">
          <mxGeometry y="30" width="280" height="30" as="geometry" />
        </mxCell>
        <mxCell id="OKTao6-8tQ2HSba5QrjD-137" value="id" style="shape=partialRectangle;connectable=0;fillColor=none;top=0;left=0;bottom=0;right=0;fontStyle=1;overflow=hidden;fontColor=#EA6B66;" parent="OKTao6-8tQ2HSba5QrjD-136" vertex="1">
          <mxGeometry width="110" height="30" as="geometry" />
        </mxCell>
        <mxCell id="OKTao6-8tQ2HSba5QrjD-138" value="Идентификатор" style="shape=partialRectangle;connectable=0;fillColor=none;top=0;left=0;bottom=0;right=0;align=left;spacingLeft=6;fontStyle=5;overflow=hidden;" parent="OKTao6-8tQ2HSba5QrjD-136" vertex="1">
          <mxGeometry x="110" width="170" height="30" as="geometry" />
        </mxCell>
        <mxCell id="OKTao6-8tQ2HSba5QrjD-139" value="" style="shape=partialRectangle;collapsible=0;dropTarget=0;pointerEvents=0;fillColor=none;top=0;left=0;bottom=0;right=0;points=[[0,0.5],[1,0.5]];portConstraint=eastwest;fontColor=#EA6B66;strokeColor=#B5739D;" parent="OKTao6-8tQ2HSba5QrjD-135" vertex="1">
          <mxGeometry y="60" width="280" height="30" as="geometry" />
        </mxCell>
        <mxCell id="OKTao6-8tQ2HSba5QrjD-140" value="name" style="shape=partialRectangle;connectable=0;fillColor=none;top=0;left=0;bottom=0;right=0;editable=1;overflow=hidden;fontColor=#A680B8;" parent="OKTao6-8tQ2HSba5QrjD-139" vertex="1">
          <mxGeometry width="110" height="30" as="geometry" />
        </mxCell>
        <mxCell id="OKTao6-8tQ2HSba5QrjD-141" value="Наименование" style="shape=partialRectangle;connectable=0;fillColor=none;top=0;left=0;bottom=0;right=0;align=left;spacingLeft=6;overflow=hidden;" parent="OKTao6-8tQ2HSba5QrjD-139" vertex="1">
          <mxGeometry x="110" width="170" height="30" as="geometry" />
        </mxCell>
        <mxCell id="OKTao6-8tQ2HSba5QrjD-143" style="edgeStyle=orthogonalEdgeStyle;rounded=0;orthogonalLoop=1;jettySize=auto;html=1;exitX=0.5;exitY=1;exitDx=0;exitDy=0;fontColor=#EA6B66;dashed=1;entryX=0.5;entryY=0;entryDx=0;entryDy=0;" parent="1" source="OKTao6-8tQ2HSba5QrjD-128" target="OKTao6-8tQ2HSba5QrjD-135" edge="1">
          <mxGeometry relative="1" as="geometry">
            <mxPoint x="-680" y="444.9999999999998" as="sourcePoint" />
            <mxPoint x="-680" y="1010" as="targetPoint" />
            <Array as="points">
              <mxPoint x="-220" y="920" />
              <mxPoint x="-220" y="920" />
            </Array>
          </mxGeometry>
        </mxCell>
        <mxCell id="OKTao6-8tQ2HSba5QrjD-178" style="edgeStyle=orthogonalEdgeStyle;rounded=0;orthogonalLoop=1;jettySize=auto;html=1;entryX=1;entryY=0.5;entryDx=0;entryDy=0;fontColor=#97D077;startArrow=classicThin;startFill=1;exitX=1;exitY=0.5;exitDx=0;exitDy=0;strokeColor=#97D077;" parent="1" target="CA9-zons2UcCvZ7FdS-7-268" edge="1" source="boM8Fp75N3sVBavPqf3y-106">
          <mxGeometry relative="1" as="geometry">
            <mxPoint x="360" y="1370" as="sourcePoint" />
            <mxPoint x="789.9999999999995" y="1175" as="targetPoint" />
          </mxGeometry>
        </mxCell>
        <mxCell id="OKTao6-8tQ2HSba5QrjD-179" style="edgeStyle=orthogonalEdgeStyle;rounded=0;orthogonalLoop=1;jettySize=auto;html=1;exitX=0;exitY=0.5;exitDx=0;exitDy=0;fontColor=#97D077;startArrow=classic;startFill=1;entryX=1;entryY=0.5;entryDx=0;entryDy=0;strokeColor=#97D077;endArrow=classic;endFill=1;" parent="1" source="OKTao6-8tQ2HSba5QrjD-71" target="CA9-zons2UcCvZ7FdS-7-268" edge="1">
          <mxGeometry relative="1" as="geometry">
            <mxPoint x="379.4399999999996" y="1419.52" as="sourcePoint" />
            <mxPoint x="590" y="1600" as="targetPoint" />
          </mxGeometry>
        </mxCell>
        <mxCell id="OKTao6-8tQ2HSba5QrjD-197" value="Резервуары" style="shape=table;startSize=30;container=1;collapsible=1;childLayout=tableLayout;fixedRows=1;rowLines=0;fontStyle=1;align=center;resizeLast=1;fontColor=#000000;strokeColor=#B09500;fillColor=#e3c800;" parent="1" vertex="1">
          <mxGeometry x="-200" y="720" width="280" height="130" as="geometry" />
        </mxCell>
        <mxCell id="OKTao6-8tQ2HSba5QrjD-198" value="" style="shape=partialRectangle;collapsible=0;dropTarget=0;pointerEvents=0;fillColor=none;top=0;left=0;bottom=1;right=0;points=[[0,0.5],[1,0.5]];portConstraint=eastwest;strokeColor=#FFD966;" parent="OKTao6-8tQ2HSba5QrjD-197" vertex="1">
          <mxGeometry y="30" width="280" height="30" as="geometry" />
        </mxCell>
        <mxCell id="OKTao6-8tQ2HSba5QrjD-199" value="id" style="shape=partialRectangle;connectable=0;fillColor=none;top=0;left=0;bottom=0;right=0;fontStyle=1;overflow=hidden;fontColor=#EA6B66;" parent="OKTao6-8tQ2HSba5QrjD-198" vertex="1">
          <mxGeometry width="110" height="30" as="geometry" />
        </mxCell>
        <mxCell id="OKTao6-8tQ2HSba5QrjD-200" value="Идентификатор" style="shape=partialRectangle;connectable=0;fillColor=none;top=0;left=0;bottom=0;right=0;align=left;spacingLeft=6;fontStyle=5;overflow=hidden;" parent="OKTao6-8tQ2HSba5QrjD-198" vertex="1">
          <mxGeometry x="110" width="170" height="30" as="geometry" />
        </mxCell>
        <mxCell id="OKTao6-8tQ2HSba5QrjD-227" value="" style="shape=partialRectangle;collapsible=0;dropTarget=0;pointerEvents=0;fillColor=none;top=0;left=0;bottom=0;right=0;points=[[0,0.5],[1,0.5]];portConstraint=eastwest;fontColor=#A680B8;strokeColor=#EA6B66;" parent="OKTao6-8tQ2HSba5QrjD-197" vertex="1">
          <mxGeometry y="60" width="280" height="30" as="geometry" />
        </mxCell>
        <mxCell id="OKTao6-8tQ2HSba5QrjD-228" value="base" style="shape=partialRectangle;connectable=0;fillColor=none;top=0;left=0;bottom=0;right=0;editable=1;overflow=hidden;fontColor=#A680B8;" parent="OKTao6-8tQ2HSba5QrjD-227" vertex="1">
          <mxGeometry width="110" height="30" as="geometry" />
        </mxCell>
        <mxCell id="OKTao6-8tQ2HSba5QrjD-229" value="Базис поставки" style="shape=partialRectangle;connectable=0;fillColor=none;top=0;left=0;bottom=0;right=0;align=left;spacingLeft=6;overflow=hidden;" parent="OKTao6-8tQ2HSba5QrjD-227" vertex="1">
          <mxGeometry x="110" width="170" height="30" as="geometry" />
        </mxCell>
        <mxCell id="OKTao6-8tQ2HSba5QrjD-201" value="" style="shape=partialRectangle;collapsible=0;dropTarget=0;pointerEvents=0;fillColor=none;top=0;left=0;bottom=0;right=0;points=[[0,0.5],[1,0.5]];portConstraint=eastwest;fontColor=#EA6B66;strokeColor=#B5739D;" parent="OKTao6-8tQ2HSba5QrjD-197" vertex="1">
          <mxGeometry y="90" width="280" height="30" as="geometry" />
        </mxCell>
        <mxCell id="OKTao6-8tQ2HSba5QrjD-202" value="name" style="shape=partialRectangle;connectable=0;fillColor=none;top=0;left=0;bottom=0;right=0;editable=1;overflow=hidden;fontColor=#A680B8;" parent="OKTao6-8tQ2HSba5QrjD-201" vertex="1">
          <mxGeometry width="110" height="30" as="geometry" />
        </mxCell>
        <mxCell id="OKTao6-8tQ2HSba5QrjD-203" value="Наименование" style="shape=partialRectangle;connectable=0;fillColor=none;top=0;left=0;bottom=0;right=0;align=left;spacingLeft=6;overflow=hidden;" parent="OKTao6-8tQ2HSba5QrjD-201" vertex="1">
          <mxGeometry x="110" width="170" height="30" as="geometry" />
        </mxCell>
        <mxCell id="OKTao6-8tQ2HSba5QrjD-204" value="Резервуары" style="shape=table;startSize=30;container=1;collapsible=1;childLayout=tableLayout;fixedRows=1;rowLines=0;fontStyle=1;align=center;resizeLast=1;fontColor=#ffffff;fillColor=#6d8764;strokeColor=#97D077;" parent="1" vertex="1">
          <mxGeometry x="-200" y="1000" width="280" height="130" as="geometry" />
        </mxCell>
        <mxCell id="OKTao6-8tQ2HSba5QrjD-205" value="" style="shape=partialRectangle;collapsible=0;dropTarget=0;pointerEvents=0;fillColor=none;top=0;left=0;bottom=1;right=0;points=[[0,0.5],[1,0.5]];portConstraint=eastwest;strokeColor=#97D077;" parent="OKTao6-8tQ2HSba5QrjD-204" vertex="1">
          <mxGeometry y="30" width="280" height="30" as="geometry" />
        </mxCell>
        <mxCell id="OKTao6-8tQ2HSba5QrjD-206" value="id" style="shape=partialRectangle;connectable=0;fillColor=none;top=0;left=0;bottom=0;right=0;fontStyle=1;overflow=hidden;fontColor=#EA6B66;" parent="OKTao6-8tQ2HSba5QrjD-205" vertex="1">
          <mxGeometry width="110" height="30" as="geometry" />
        </mxCell>
        <mxCell id="OKTao6-8tQ2HSba5QrjD-207" value="Идентификатор" style="shape=partialRectangle;connectable=0;fillColor=none;top=0;left=0;bottom=0;right=0;align=left;spacingLeft=6;fontStyle=5;overflow=hidden;" parent="OKTao6-8tQ2HSba5QrjD-205" vertex="1">
          <mxGeometry x="110" width="170" height="30" as="geometry" />
        </mxCell>
        <mxCell id="OKTao6-8tQ2HSba5QrjD-230" value="" style="shape=partialRectangle;collapsible=0;dropTarget=0;pointerEvents=0;fillColor=none;top=0;left=0;bottom=0;right=0;points=[[0,0.5],[1,0.5]];portConstraint=eastwest;fontColor=#A680B8;strokeColor=#EA6B66;" parent="OKTao6-8tQ2HSba5QrjD-204" vertex="1">
          <mxGeometry y="60" width="280" height="30" as="geometry" />
        </mxCell>
        <mxCell id="OKTao6-8tQ2HSba5QrjD-231" value="base" style="shape=partialRectangle;connectable=0;fillColor=none;top=0;left=0;bottom=0;right=0;editable=1;overflow=hidden;fontColor=#A680B8;" parent="OKTao6-8tQ2HSba5QrjD-230" vertex="1">
          <mxGeometry width="110" height="30" as="geometry" />
        </mxCell>
        <mxCell id="OKTao6-8tQ2HSba5QrjD-232" value="Базис поставки" style="shape=partialRectangle;connectable=0;fillColor=none;top=0;left=0;bottom=0;right=0;align=left;spacingLeft=6;overflow=hidden;" parent="OKTao6-8tQ2HSba5QrjD-230" vertex="1">
          <mxGeometry x="110" width="170" height="30" as="geometry" />
        </mxCell>
        <mxCell id="OKTao6-8tQ2HSba5QrjD-208" value="" style="shape=partialRectangle;collapsible=0;dropTarget=0;pointerEvents=0;fillColor=none;top=0;left=0;bottom=0;right=0;points=[[0,0.5],[1,0.5]];portConstraint=eastwest;fontColor=#EA6B66;strokeColor=#B5739D;" parent="OKTao6-8tQ2HSba5QrjD-204" vertex="1">
          <mxGeometry y="90" width="280" height="30" as="geometry" />
        </mxCell>
        <mxCell id="OKTao6-8tQ2HSba5QrjD-209" value="name" style="shape=partialRectangle;connectable=0;fillColor=none;top=0;left=0;bottom=0;right=0;editable=1;overflow=hidden;fontColor=#A680B8;" parent="OKTao6-8tQ2HSba5QrjD-208" vertex="1">
          <mxGeometry width="110" height="30" as="geometry" />
        </mxCell>
        <mxCell id="OKTao6-8tQ2HSba5QrjD-210" value="Наименование" style="shape=partialRectangle;connectable=0;fillColor=none;top=0;left=0;bottom=0;right=0;align=left;spacingLeft=6;overflow=hidden;" parent="OKTao6-8tQ2HSba5QrjD-208" vertex="1">
          <mxGeometry x="110" width="170" height="30" as="geometry" />
        </mxCell>
        <mxCell id="OKTao6-8tQ2HSba5QrjD-211" style="edgeStyle=orthogonalEdgeStyle;rounded=0;orthogonalLoop=1;jettySize=auto;html=1;exitX=0.5;exitY=1;exitDx=0;exitDy=0;fontColor=#EA6B66;dashed=1;entryX=0.5;entryY=0;entryDx=0;entryDy=0;" parent="1" source="OKTao6-8tQ2HSba5QrjD-197" target="OKTao6-8tQ2HSba5QrjD-204" edge="1">
          <mxGeometry relative="1" as="geometry">
            <mxPoint x="-360" y="444.9999999999998" as="sourcePoint" />
            <mxPoint x="-360" y="1010" as="targetPoint" />
            <Array as="points">
              <mxPoint x="-60" y="910" />
              <mxPoint x="-60" y="910" />
            </Array>
          </mxGeometry>
        </mxCell>
        <mxCell id="OKTao6-8tQ2HSba5QrjD-234" style="edgeStyle=orthogonalEdgeStyle;rounded=0;orthogonalLoop=1;jettySize=auto;html=1;exitX=0;exitY=0.5;exitDx=0;exitDy=0;entryX=0;entryY=0.5;entryDx=0;entryDy=0;dashed=1;dashPattern=1 2;fontColor=#A680B8;startArrow=none;startFill=0;endArrow=block;endFill=0;" parent="1" source="CA9-zons2UcCvZ7FdS-7-106" target="boM8Fp75N3sVBavPqf3y-145" edge="1">
          <mxGeometry relative="1" as="geometry">
            <Array as="points">
              <mxPoint x="170" y="825" />
              <mxPoint x="170" y="1315" />
            </Array>
          </mxGeometry>
        </mxCell>
        <mxCell id="OKTao6-8tQ2HSba5QrjD-235" style="edgeStyle=orthogonalEdgeStyle;rounded=0;orthogonalLoop=1;jettySize=auto;html=1;exitX=0;exitY=0.5;exitDx=0;exitDy=0;entryX=0;entryY=0.5;entryDx=0;entryDy=0;dashed=1;dashPattern=1 2;fontColor=#A680B8;startArrow=none;startFill=0;endArrow=block;endFill=0;" parent="1" source="CA9-zons2UcCvZ7FdS-7-100" target="boM8Fp75N3sVBavPqf3y-127" edge="1">
          <mxGeometry relative="1" as="geometry">
            <Array as="points">
              <mxPoint x="160" y="765" />
              <mxPoint x="160" y="1255" />
            </Array>
          </mxGeometry>
        </mxCell>
        <mxCell id="OKTao6-8tQ2HSba5QrjD-236" style="edgeStyle=orthogonalEdgeStyle;rounded=0;orthogonalLoop=1;jettySize=auto;html=1;exitX=0;exitY=0.5;exitDx=0;exitDy=0;entryX=0;entryY=0.5;entryDx=0;entryDy=0;dashed=1;dashPattern=1 2;fontColor=#A680B8;startArrow=none;startFill=0;endArrow=block;endFill=0;" parent="1" source="CA9-zons2UcCvZ7FdS-7-79" target="boM8Fp75N3sVBavPqf3y-133" edge="1">
          <mxGeometry relative="1" as="geometry">
            <Array as="points">
              <mxPoint x="150" y="555" />
              <mxPoint x="150" y="1285" />
            </Array>
          </mxGeometry>
        </mxCell>
        <mxCell id="4HjgHjUAZJR2l0LvfLcB-3" style="edgeStyle=orthogonalEdgeStyle;rounded=0;orthogonalLoop=1;jettySize=auto;html=1;exitX=1;exitY=0.5;exitDx=0;exitDy=0;entryX=0;entryY=0.5;entryDx=0;entryDy=0;fontColor=#999999;endArrow=none;endFill=0;dashed=1;dashPattern=1 4;" edge="1" parent="1" source="4HjgHjUAZJR2l0LvfLcB-2" target="OKTao6-8tQ2HSba5QrjD-77">
          <mxGeometry relative="1" as="geometry" />
        </mxCell>
        <mxCell id="4HjgHjUAZJR2l0LvfLcB-2" value="Предлагаю сделать именно timestamp, так как возможно, по какой-то причине информация по остатку будет внесена более 1 раза в день" style="text;html=1;strokeColor=none;fillColor=none;align=center;verticalAlign=middle;whiteSpace=wrap;rounded=0;fontColor=#999999;" vertex="1" parent="1">
          <mxGeometry x="470" y="1940" width="160" height="90" as="geometry" />
        </mxCell>
        <mxCell id="4HjgHjUAZJR2l0LvfLcB-8" style="edgeStyle=orthogonalEdgeStyle;rounded=0;orthogonalLoop=1;jettySize=auto;html=1;exitX=0;exitY=0.5;exitDx=0;exitDy=0;entryX=1;entryY=0.5;entryDx=0;entryDy=0;dashed=1;dashPattern=1 4;fontColor=#999999;endArrow=block;endFill=0;" edge="1" parent="1" source="boM8Fp75N3sVBavPqf3y-78" target="boM8Fp75N3sVBavPqf3y-112">
          <mxGeometry relative="1" as="geometry">
            <Array as="points">
              <mxPoint x="1570" y="525" />
              <mxPoint x="1570" y="860" />
              <mxPoint x="590" y="860" />
              <mxPoint x="590" y="1105" />
            </Array>
          </mxGeometry>
        </mxCell>
        <mxCell id="4HjgHjUAZJR2l0LvfLcB-9" value="Качественные характеристики остатков - &#xa;TankResidueQualityAttr" style="shape=table;startSize=30;container=1;collapsible=1;childLayout=tableLayout;fixedRows=1;rowLines=0;fontStyle=1;align=center;resizeLast=1;fontColor=#ffffff;fillColor=#6d8764;strokeColor=#97D077;" vertex="1" parent="1">
          <mxGeometry x="1120" y="1440" width="400" height="160" as="geometry" />
        </mxCell>
        <mxCell id="4HjgHjUAZJR2l0LvfLcB-10" value="" style="shape=partialRectangle;collapsible=0;dropTarget=0;pointerEvents=0;fillColor=none;top=0;left=0;bottom=1;right=0;points=[[0,0.5],[1,0.5]];portConstraint=eastwest;strokeColor=#97D077;" vertex="1" parent="4HjgHjUAZJR2l0LvfLcB-9">
          <mxGeometry y="30" width="400" height="30" as="geometry" />
        </mxCell>
        <mxCell id="4HjgHjUAZJR2l0LvfLcB-11" value="id" style="shape=partialRectangle;connectable=0;fillColor=none;top=0;left=0;bottom=0;right=0;fontStyle=1;overflow=hidden;fontColor=#EA6B66;" vertex="1" parent="4HjgHjUAZJR2l0LvfLcB-10">
          <mxGeometry width="90" height="30" as="geometry" />
        </mxCell>
        <mxCell id="4HjgHjUAZJR2l0LvfLcB-12" value="Идентификатор" style="shape=partialRectangle;connectable=0;fillColor=none;top=0;left=0;bottom=0;right=0;align=left;spacingLeft=6;fontStyle=5;overflow=hidden;" vertex="1" parent="4HjgHjUAZJR2l0LvfLcB-10">
          <mxGeometry x="90" width="310" height="30" as="geometry" />
        </mxCell>
        <mxCell id="4HjgHjUAZJR2l0LvfLcB-13" value="" style="shape=partialRectangle;collapsible=0;dropTarget=0;pointerEvents=0;fillColor=none;top=0;left=0;bottom=0;right=0;points=[[0,0.5],[1,0.5]];portConstraint=eastwest;fontColor=#EA6B66;strokeColor=#B5739D;" vertex="1" parent="4HjgHjUAZJR2l0LvfLcB-9">
          <mxGeometry y="60" width="400" height="30" as="geometry" />
        </mxCell>
        <mxCell id="4HjgHjUAZJR2l0LvfLcB-14" value="residue_id" style="shape=partialRectangle;connectable=0;fillColor=none;top=0;left=0;bottom=0;right=0;editable=1;overflow=hidden;fontColor=#EA6B66;" vertex="1" parent="4HjgHjUAZJR2l0LvfLcB-13">
          <mxGeometry width="90" height="30" as="geometry" />
        </mxCell>
        <mxCell id="4HjgHjUAZJR2l0LvfLcB-15" value="Идентификатор партии" style="shape=partialRectangle;connectable=0;fillColor=none;top=0;left=0;bottom=0;right=0;align=left;spacingLeft=6;overflow=hidden;" vertex="1" parent="4HjgHjUAZJR2l0LvfLcB-13">
          <mxGeometry x="90" width="310" height="30" as="geometry" />
        </mxCell>
        <mxCell id="4HjgHjUAZJR2l0LvfLcB-16" value="" style="shape=partialRectangle;collapsible=0;dropTarget=0;pointerEvents=0;fillColor=none;top=0;left=0;bottom=0;right=0;points=[[0,0.5],[1,0.5]];portConstraint=eastwest;fontColor=#EA6B66;strokeColor=#B5739D;" vertex="1" parent="4HjgHjUAZJR2l0LvfLcB-9">
          <mxGeometry y="90" width="400" height="30" as="geometry" />
        </mxCell>
        <mxCell id="4HjgHjUAZJR2l0LvfLcB-17" value="attr_id" style="shape=partialRectangle;connectable=0;fillColor=none;top=0;left=0;bottom=0;right=0;editable=1;overflow=hidden;fontColor=#EA6B66;" vertex="1" parent="4HjgHjUAZJR2l0LvfLcB-16">
          <mxGeometry width="90" height="30" as="geometry" />
        </mxCell>
        <mxCell id="4HjgHjUAZJR2l0LvfLcB-18" value="Идентификатор характеристики" style="shape=partialRectangle;connectable=0;fillColor=none;top=0;left=0;bottom=0;right=0;align=left;spacingLeft=6;overflow=hidden;" vertex="1" parent="4HjgHjUAZJR2l0LvfLcB-16">
          <mxGeometry x="90" width="310" height="30" as="geometry" />
        </mxCell>
        <mxCell id="4HjgHjUAZJR2l0LvfLcB-19" value="" style="shape=partialRectangle;collapsible=0;dropTarget=0;pointerEvents=0;fillColor=none;top=0;left=0;bottom=0;right=0;points=[[0,0.5],[1,0.5]];portConstraint=eastwest;fontColor=#EA6B66;strokeColor=#B5739D;" vertex="1" parent="4HjgHjUAZJR2l0LvfLcB-9">
          <mxGeometry y="120" width="400" height="30" as="geometry" />
        </mxCell>
        <mxCell id="4HjgHjUAZJR2l0LvfLcB-20" value="value" style="shape=partialRectangle;connectable=0;fillColor=none;top=0;left=0;bottom=0;right=0;editable=1;overflow=hidden;fontColor=#97D077;" vertex="1" parent="4HjgHjUAZJR2l0LvfLcB-19">
          <mxGeometry width="90" height="30" as="geometry" />
        </mxCell>
        <mxCell id="4HjgHjUAZJR2l0LvfLcB-21" value="Значение" style="shape=partialRectangle;connectable=0;fillColor=none;top=0;left=0;bottom=0;right=0;align=left;spacingLeft=6;overflow=hidden;" vertex="1" parent="4HjgHjUAZJR2l0LvfLcB-19">
          <mxGeometry x="90" width="310" height="30" as="geometry" />
        </mxCell>
        <mxCell id="4HjgHjUAZJR2l0LvfLcB-22" style="edgeStyle=orthogonalEdgeStyle;rounded=0;orthogonalLoop=1;jettySize=auto;html=1;exitX=0;exitY=0.5;exitDx=0;exitDy=0;entryX=1;entryY=0.5;entryDx=0;entryDy=0;fontColor=#999999;endArrow=classic;endFill=1;strokeColor=#97D077;" edge="1" parent="1" source="boM8Fp75N3sVBavPqf3y-40" target="4HjgHjUAZJR2l0LvfLcB-16">
          <mxGeometry relative="1" as="geometry">
            <Array as="points">
              <mxPoint x="1570" y="1045" />
              <mxPoint x="1570" y="1545" />
            </Array>
          </mxGeometry>
        </mxCell>
        <mxCell id="4HjgHjUAZJR2l0LvfLcB-23" style="edgeStyle=orthogonalEdgeStyle;rounded=0;orthogonalLoop=1;jettySize=auto;html=1;exitX=1;exitY=0.5;exitDx=0;exitDy=0;entryX=0;entryY=0.5;entryDx=0;entryDy=0;fontColor=#999999;startArrow=none;startFill=0;endArrow=classic;endFill=1;strokeColor=#97D077;" edge="1" parent="1" source="OKTao6-8tQ2HSba5QrjD-71" target="4HjgHjUAZJR2l0LvfLcB-13">
          <mxGeometry relative="1" as="geometry" />
        </mxCell>
        <mxCell id="4HjgHjUAZJR2l0LvfLcB-24" value="m2m связь реестра накладных и показателей качества - &#xa;railway_register_stocks_indexes_data" style="shape=table;startSize=30;container=1;collapsible=1;childLayout=tableLayout;fixedRows=1;rowLines=0;fontStyle=1;align=center;resizeLast=1;fillColor=#e3c800;strokeColor=#B09500;fontColor=#000000;" vertex="1" parent="1">
          <mxGeometry x="640" y="724" width="400" height="126" as="geometry">
            <mxRectangle x="590" y="6" width="380" height="30" as="alternateBounds" />
          </mxGeometry>
        </mxCell>
        <mxCell id="4HjgHjUAZJR2l0LvfLcB-25" value="" style="shape=partialRectangle;collapsible=0;dropTarget=0;pointerEvents=0;fillColor=none;top=0;left=0;bottom=1;right=0;points=[[0,0.5],[1,0.5]];portConstraint=eastwest;fontColor=#A680B8;strokeColor=#FFD966;" vertex="1" parent="4HjgHjUAZJR2l0LvfLcB-24">
          <mxGeometry y="30" width="400" height="30" as="geometry" />
        </mxCell>
        <mxCell id="4HjgHjUAZJR2l0LvfLcB-26" value="id" style="shape=partialRectangle;connectable=0;fillColor=none;top=0;left=0;bottom=0;right=0;fontStyle=1;overflow=hidden;fontColor=#EA6B66;" vertex="1" parent="4HjgHjUAZJR2l0LvfLcB-25">
          <mxGeometry width="170.00000000000048" height="30" as="geometry" />
        </mxCell>
        <mxCell id="4HjgHjUAZJR2l0LvfLcB-27" value="Идентификатор" style="shape=partialRectangle;connectable=0;fillColor=none;top=0;left=0;bottom=0;right=0;align=left;spacingLeft=6;fontStyle=5;overflow=hidden;" vertex="1" parent="4HjgHjUAZJR2l0LvfLcB-25">
          <mxGeometry x="170.00000000000048" width="229.99999999999952" height="30" as="geometry" />
        </mxCell>
        <mxCell id="4HjgHjUAZJR2l0LvfLcB-28" value="" style="shape=partialRectangle;collapsible=0;dropTarget=0;pointerEvents=0;fillColor=none;top=0;left=0;bottom=0;right=0;points=[[0,0.5],[1,0.5]];portConstraint=eastwest;" vertex="1" parent="4HjgHjUAZJR2l0LvfLcB-24">
          <mxGeometry y="60" width="400" height="30" as="geometry" />
        </mxCell>
        <mxCell id="4HjgHjUAZJR2l0LvfLcB-29" value="deliverypassport_id" style="shape=partialRectangle;connectable=0;fillColor=none;top=0;left=0;bottom=0;right=0;editable=1;overflow=hidden;fontStyle=0;strokeColor=#EA6B66;fontColor=#EA6B66;" vertex="1" parent="4HjgHjUAZJR2l0LvfLcB-28">
          <mxGeometry width="170.00000000000048" height="30" as="geometry" />
        </mxCell>
        <mxCell id="4HjgHjUAZJR2l0LvfLcB-30" value="Идентификатор накладной" style="shape=partialRectangle;connectable=0;fillColor=none;top=0;left=0;bottom=0;right=0;align=left;spacingLeft=6;overflow=hidden;" vertex="1" parent="4HjgHjUAZJR2l0LvfLcB-28">
          <mxGeometry x="170.00000000000048" width="229.99999999999952" height="30" as="geometry" />
        </mxCell>
        <mxCell id="4HjgHjUAZJR2l0LvfLcB-31" value="" style="shape=partialRectangle;collapsible=0;dropTarget=0;pointerEvents=0;fillColor=none;top=0;left=0;bottom=0;right=0;points=[[0,0.5],[1,0.5]];portConstraint=eastwest;" vertex="1" parent="4HjgHjUAZJR2l0LvfLcB-24">
          <mxGeometry y="90" width="400" height="30" as="geometry" />
        </mxCell>
        <mxCell id="4HjgHjUAZJR2l0LvfLcB-32" value="deliverypassportqualityattr_id" style="shape=partialRectangle;connectable=0;fillColor=none;top=0;left=0;bottom=0;right=0;editable=1;overflow=hidden;fontColor=#EA6B66;" vertex="1" parent="4HjgHjUAZJR2l0LvfLcB-31">
          <mxGeometry width="170.00000000000048" height="30" as="geometry" />
        </mxCell>
        <mxCell id="4HjgHjUAZJR2l0LvfLcB-33" value="Идентификатор показателя качества" style="shape=partialRectangle;connectable=0;fillColor=none;top=0;left=0;bottom=0;right=0;align=left;spacingLeft=6;overflow=hidden;" vertex="1" parent="4HjgHjUAZJR2l0LvfLcB-31">
          <mxGeometry x="170.00000000000048" width="229.99999999999952" height="30" as="geometry" />
        </mxCell>
        <mxCell id="4HjgHjUAZJR2l0LvfLcB-36" value="m2m связь реестра накладных и показателей качества - &#xa;railway_register_stocks_indexes_data" style="shape=table;startSize=30;container=1;collapsible=1;childLayout=tableLayout;fixedRows=1;rowLines=0;fontStyle=1;align=center;resizeLast=1;fillColor=#6d8764;fontColor=#ffffff;strokeColor=#97D077;" vertex="1" parent="1">
          <mxGeometry x="640" y="1000" width="400" height="120" as="geometry">
            <mxRectangle x="590" y="6" width="380" height="30" as="alternateBounds" />
          </mxGeometry>
        </mxCell>
        <mxCell id="4HjgHjUAZJR2l0LvfLcB-37" value="" style="shape=partialRectangle;collapsible=0;dropTarget=0;pointerEvents=0;fillColor=none;top=0;left=0;bottom=1;right=0;points=[[0,0.5],[1,0.5]];portConstraint=eastwest;fontColor=#A680B8;strokeColor=#97D077;" vertex="1" parent="4HjgHjUAZJR2l0LvfLcB-36">
          <mxGeometry y="30" width="400" height="30" as="geometry" />
        </mxCell>
        <mxCell id="4HjgHjUAZJR2l0LvfLcB-38" value="id" style="shape=partialRectangle;connectable=0;fillColor=none;top=0;left=0;bottom=0;right=0;fontStyle=1;overflow=hidden;" vertex="1" parent="4HjgHjUAZJR2l0LvfLcB-37">
          <mxGeometry width="170.00000000000048" height="30" as="geometry" />
        </mxCell>
        <mxCell id="4HjgHjUAZJR2l0LvfLcB-39" value="Идентификатор" style="shape=partialRectangle;connectable=0;fillColor=none;top=0;left=0;bottom=0;right=0;align=left;spacingLeft=6;fontStyle=5;overflow=hidden;" vertex="1" parent="4HjgHjUAZJR2l0LvfLcB-37">
          <mxGeometry x="170.00000000000048" width="229.99999999999952" height="30" as="geometry" />
        </mxCell>
        <mxCell id="4HjgHjUAZJR2l0LvfLcB-40" value="" style="shape=partialRectangle;collapsible=0;dropTarget=0;pointerEvents=0;fillColor=none;top=0;left=0;bottom=0;right=0;points=[[0,0.5],[1,0.5]];portConstraint=eastwest;" vertex="1" parent="4HjgHjUAZJR2l0LvfLcB-36">
          <mxGeometry y="60" width="400" height="30" as="geometry" />
        </mxCell>
        <mxCell id="4HjgHjUAZJR2l0LvfLcB-41" value="deliverypassport_id" style="shape=partialRectangle;connectable=0;fillColor=none;top=0;left=0;bottom=0;right=0;editable=1;overflow=hidden;fontStyle=0;strokeColor=#EA6B66;fontColor=#EA6B66;" vertex="1" parent="4HjgHjUAZJR2l0LvfLcB-40">
          <mxGeometry width="170.00000000000048" height="30" as="geometry" />
        </mxCell>
        <mxCell id="4HjgHjUAZJR2l0LvfLcB-42" value="Идентификатор накладной" style="shape=partialRectangle;connectable=0;fillColor=none;top=0;left=0;bottom=0;right=0;align=left;spacingLeft=6;overflow=hidden;" vertex="1" parent="4HjgHjUAZJR2l0LvfLcB-40">
          <mxGeometry x="170.00000000000048" width="229.99999999999952" height="30" as="geometry" />
        </mxCell>
        <mxCell id="4HjgHjUAZJR2l0LvfLcB-43" value="" style="shape=partialRectangle;collapsible=0;dropTarget=0;pointerEvents=0;fillColor=none;top=0;left=0;bottom=0;right=0;points=[[0,0.5],[1,0.5]];portConstraint=eastwest;" vertex="1" parent="4HjgHjUAZJR2l0LvfLcB-36">
          <mxGeometry y="90" width="400" height="30" as="geometry" />
        </mxCell>
        <mxCell id="4HjgHjUAZJR2l0LvfLcB-44" value="deliverypassportqualityattr_id" style="shape=partialRectangle;connectable=0;fillColor=none;top=0;left=0;bottom=0;right=0;editable=1;overflow=hidden;fontColor=#EA6B66;" vertex="1" parent="4HjgHjUAZJR2l0LvfLcB-43">
          <mxGeometry width="170.00000000000048" height="30" as="geometry" />
        </mxCell>
        <mxCell id="4HjgHjUAZJR2l0LvfLcB-45" value="Идентификатор показателя качества" style="shape=partialRectangle;connectable=0;fillColor=none;top=0;left=0;bottom=0;right=0;align=left;spacingLeft=6;overflow=hidden;" vertex="1" parent="4HjgHjUAZJR2l0LvfLcB-43">
          <mxGeometry x="170.00000000000048" width="229.99999999999952" height="30" as="geometry" />
        </mxCell>
        <mxCell id="4HjgHjUAZJR2l0LvfLcB-47" style="edgeStyle=orthogonalEdgeStyle;rounded=0;orthogonalLoop=1;jettySize=auto;html=1;exitX=1;exitY=0.5;exitDx=0;exitDy=0;entryX=0;entryY=0.5;entryDx=0;entryDy=0;fontColor=#EA6B66;startArrow=none;startFill=0;endArrow=classic;endFill=1;strokeColor=#B09500;fillColor=#e3c800;" edge="1" parent="1" source="CA9-zons2UcCvZ7FdS-7-18" target="4HjgHjUAZJR2l0LvfLcB-28">
          <mxGeometry relative="1" as="geometry" />
        </mxCell>
        <mxCell id="4HjgHjUAZJR2l0LvfLcB-48" style="edgeStyle=orthogonalEdgeStyle;rounded=0;orthogonalLoop=1;jettySize=auto;html=1;exitX=0;exitY=0.5;exitDx=0;exitDy=0;entryX=1;entryY=0.5;entryDx=0;entryDy=0;fontColor=#EA6B66;startArrow=none;startFill=0;endArrow=classic;endFill=1;strokeColor=#B09500;fillColor=#e3c800;" edge="1" parent="1" source="OKTao6-8tQ2HSba5QrjD-60" target="4HjgHjUAZJR2l0LvfLcB-31">
          <mxGeometry relative="1" as="geometry" />
        </mxCell>
        <mxCell id="4HjgHjUAZJR2l0LvfLcB-49" style="edgeStyle=orthogonalEdgeStyle;rounded=0;orthogonalLoop=1;jettySize=auto;html=1;exitX=1;exitY=0.5;exitDx=0;exitDy=0;entryX=0;entryY=0.5;entryDx=0;entryDy=0;fontColor=#EA6B66;startArrow=none;startFill=0;endArrow=classic;endFill=1;strokeColor=#97D077;" edge="1" parent="1" source="boM8Fp75N3sVBavPqf3y-106" target="4HjgHjUAZJR2l0LvfLcB-40">
          <mxGeometry relative="1" as="geometry" />
        </mxCell>
        <mxCell id="4HjgHjUAZJR2l0LvfLcB-50" style="edgeStyle=orthogonalEdgeStyle;rounded=0;orthogonalLoop=1;jettySize=auto;html=1;exitX=0;exitY=0.5;exitDx=0;exitDy=0;fontColor=#EA6B66;startArrow=none;startFill=0;endArrow=classic;endFill=1;strokeColor=#97D077;" edge="1" parent="1" source="boM8Fp75N3sVBavPqf3y-152" target="4HjgHjUAZJR2l0LvfLcB-43">
          <mxGeometry relative="1" as="geometry" />
        </mxCell>
        <mxCell id="4HjgHjUAZJR2l0LvfLcB-51" style="edgeStyle=orthogonalEdgeStyle;rounded=0;orthogonalLoop=1;jettySize=auto;html=1;exitX=0.5;exitY=1;exitDx=0;exitDy=0;dashed=1;fontColor=#EA6B66;entryX=0.5;entryY=0;entryDx=0;entryDy=0;" edge="1" parent="1" source="4HjgHjUAZJR2l0LvfLcB-24" target="4HjgHjUAZJR2l0LvfLcB-36">
          <mxGeometry relative="1" as="geometry">
            <mxPoint x="1329.9999999999995" y="859.9999999999998" as="sourcePoint" />
            <mxPoint x="1329.9999999999995" y="1010" as="targetPoint" />
          </mxGeometry>
        </mxCell>
        <mxCell id="4HjgHjUAZJR2l0LvfLcB-52" style="edgeStyle=orthogonalEdgeStyle;rounded=0;orthogonalLoop=1;jettySize=auto;html=1;exitX=1;exitY=0.5;exitDx=0;exitDy=0;entryX=0;entryY=0.5;entryDx=0;entryDy=0;fontColor=#EA6B66;startArrow=none;startFill=0;endArrow=classic;endFill=1;strokeColor=#97D077;" edge="1" parent="1" source="OKTao6-8tQ2HSba5QrjD-121" target="CA9-zons2UcCvZ7FdS-7-280">
          <mxGeometry relative="1" as="geometry">
            <Array as="points">
              <mxPoint y="1435" />
              <mxPoint y="1645" />
            </Array>
          </mxGeometry>
        </mxCell>
        <mxCell id="4HjgHjUAZJR2l0LvfLcB-53" style="edgeStyle=orthogonalEdgeStyle;rounded=0;orthogonalLoop=1;jettySize=auto;html=1;exitX=1;exitY=0.5;exitDx=0;exitDy=0;entryX=0;entryY=0.5;entryDx=0;entryDy=0;fontColor=#EA6B66;startArrow=none;startFill=0;endArrow=classic;endFill=1;strokeColor=#97D077;" edge="1" parent="1" source="OKTao6-8tQ2HSba5QrjD-136" target="CA9-zons2UcCvZ7FdS-7-286">
          <mxGeometry relative="1" as="geometry">
            <Array as="points">
              <mxPoint x="40" y="1255" />
              <mxPoint x="40" y="1705" />
            </Array>
          </mxGeometry>
        </mxCell>
        <mxCell id="4HjgHjUAZJR2l0LvfLcB-54" style="edgeStyle=orthogonalEdgeStyle;rounded=0;orthogonalLoop=1;jettySize=auto;html=1;exitX=1;exitY=0.5;exitDx=0;exitDy=0;entryX=0;entryY=0.5;entryDx=0;entryDy=0;fontColor=#A680B8;startArrow=none;startFill=0;endArrow=classic;endFill=1;strokeColor=#97D077;" edge="1" parent="1" source="OKTao6-8tQ2HSba5QrjD-230" target="CA9-zons2UcCvZ7FdS-7-277">
          <mxGeometry relative="1" as="geometry">
            <Array as="points">
              <mxPoint x="90" y="1075" />
              <mxPoint x="90" y="1615" />
            </Array>
          </mxGeometry>
        </mxCell>
        <mxCell id="4HjgHjUAZJR2l0LvfLcB-55" style="edgeStyle=orthogonalEdgeStyle;rounded=0;orthogonalLoop=1;jettySize=auto;html=1;exitX=1;exitY=0.5;exitDx=0;exitDy=0;entryX=0;entryY=0.5;entryDx=0;entryDy=0;fontColor=#A680B8;startArrow=none;startFill=0;endArrow=classic;endFill=1;strokeColor=#97D077;" edge="1" parent="1" source="OKTao6-8tQ2HSba5QrjD-205" target="OKTao6-8tQ2HSba5QrjD-74">
          <mxGeometry relative="1" as="geometry">
            <Array as="points">
              <mxPoint x="90" y="1045" />
              <mxPoint x="90" y="1955" />
            </Array>
          </mxGeometry>
        </mxCell>
      </root>
    </mxGraphModel>
  </diagram>
</mxfile>
